<svg width="100" height="100" viewBox="0 0 100 100" fill="none" xmlns="http://www.w3.org/2000/svg">
<rect width="100" height="100" rx="20" fill="black"/>
<g clip-path="url(#clip0_29_2213)">
<path d="M62.5936 22.3402C63.5242 23.0674 64.4882 23.7207 65.5191 24.2889C66.6392 24.9025 67.8205 25.3684 69.052 25.7036C69.3028 25.7717 69.5591 25.8229 69.8155 25.8626C69.8879 25.7831 69.9603 25.7036 70.0328 25.6183C70.93 24.5502 71.5262 23.2549 71.9553 21.9198C72.5237 20.1585 72.8134 18.3064 72.8246 16.4543C72.8246 15.6248 72.78 14.7214 72.4066 13.9658C72.1002 13.3465 71.4036 12.8807 70.7126 13.0284C69.7542 13.2329 69.5146 14.3806 69.1356 15.1419C68.2162 16.9883 66.6837 18.4996 64.8839 19.4427C64.1149 19.846 63.2957 20.1472 62.5546 20.6017C62.1645 20.8403 61.7967 21.1357 61.4902 21.4823C61.8524 21.8061 62.2815 22.0902 62.5936 22.3345V22.3402Z" fill="white"/>
<path d="M31.8338 23.1015C32.1013 22.6243 32.4858 22.2607 32.9372 22.0334C36.7487 18.636 42.2822 18.1076 46.6733 20.8119L50.0056 22.8629V25.6525C49.5375 25.6525 49.0638 25.5218 48.6459 25.2661C48.6459 25.2661 43.8146 22.6072 41.1008 22.6072C34.0517 22.6072 33.9458 27.408 32.9149 26.8115L32.8202 26.7547C31.5552 26.0218 31.115 24.3855 31.8338 23.0958V23.1015Z" fill="white"/>
<path d="M67.0684 22.0334C67.5142 22.2607 67.9043 22.6243 68.1717 23.1015C68.8906 24.3912 68.4504 26.0274 67.1854 26.7603L67.0907 26.8171C66.0598 27.4137 65.9539 22.6129 58.9048 22.6129C56.191 22.6129 51.3597 25.2718 51.3597 25.2718C50.9417 25.5275 50.4681 25.6581 50 25.6581V22.8686L53.3323 20.8176C57.7178 18.1189 63.2568 18.6416 67.0684 22.0391V22.0334Z" fill="white"/>
<path d="M51.042 49.9403C51.042 35.5323 62.538 23.8116 76.6697 23.8116H91.8546C93.036 23.8116 93.9944 24.7888 93.9944 25.9933C93.9944 35.021 86.7948 42.3614 77.9402 42.3614H70.5122C69.7097 46.4292 69.4534 50.5085 69.381 54.6445C69.4144 62.8939 64.8673 64.8426 61.2508 70.916L62.7219 75.2168C63.6636 77.9609 63.2568 80.8982 61.6074 83.2673C59.958 85.6364 57.3723 87 54.5192 87H45.4752C42.6221 87 40.042 85.6421 38.387 83.2673C36.7376 80.8982 36.3308 77.9609 37.267 75.2168L38.7381 70.9273C37.3617 68.6321 35.8237 66.7572 34.0517 64.6494C32.2351 62.4394 30.9868 59.6498 30.7249 56.775C30.5745 55.3831 30.6246 53.9741 30.5633 52.5822C30.4184 49.1392 30.151 45.7531 29.4767 42.3614H22.0486C13.1996 42.3614 6 35.021 6 25.9933C6 24.7888 6.95846 23.8116 8.13982 23.8116H23.3247C37.4564 23.8116 48.9524 35.5323 48.9524 49.9403C48.9524 52.8833 48.4676 55.7865 47.5203 58.559L41.3181 76.6542C40.8055 78.1427 40.7609 79.9551 41.7305 81.2561C42.8171 82.6992 45.6981 84.6763 47.4478 83.2275C47.81 82.9264 48.0385 82.4265 47.9271 81.9606C47.8379 81.5913 47.5481 81.2959 47.2305 81.097C46.5785 80.688 45.7928 80.5914 45.0517 80.4209C43.9483 80.1653 42.923 79.563 42.7224 78.3359C42.5608 77.3643 43.118 76.2849 44.0375 75.9667C44.9959 75.6372 46.0324 76.1372 46.8349 76.7621C48.3227 77.9154 49.5821 79.5915 49.9944 81.4549C50.4068 79.5915 51.6717 77.9154 53.154 76.7621C53.9564 76.1372 54.9985 75.6372 55.9514 75.9667C56.8708 76.2792 57.4281 77.3587 57.2665 78.3359C57.0603 79.563 56.0405 80.1653 54.9372 80.4209C54.1905 80.5914 53.4048 80.688 52.7584 81.097C52.4407 81.2959 52.151 81.5913 52.0618 81.9606C51.9504 82.4265 52.1788 82.9264 52.541 83.2275C54.2908 84.6763 57.1717 82.6992 58.2584 81.2561C59.2335 79.9607 59.1834 78.1427 58.6763 76.6542L52.4742 58.559C51.5213 55.7808 51.042 52.8833 51.0365 49.9403H51.042Z" fill="white"/>
<path d="M38.6266 65.8652C36.3864 64.1949 34.2355 62.8484 32.926 60.377C30.97 56.7693 31.7892 52.406 31.9731 48.4461C31.9842 48.3154 31.9954 48.1791 32.0065 48.0484C32.3018 44.8612 33.8176 41.9182 36.197 39.8331C37.3003 38.8673 37.9635 37.9981 36.7598 37.9981H22.0541C16.2978 37.9981 10.0511 32.3735 9.04248 26.7944H22.9067C34.3246 26.7944 44.9736 35.254 45.5754 46.8781C45.7259 49.7244 44.394 54.4457 43.4746 57.1273L40.1033 66.9617C39.6017 66.6038 39.1114 66.2402 38.621 65.8709L38.6266 65.8652ZM78.503 37.9924H58.849C62.7831 31.4417 69.5369 27.1068 77.1934 27.1068H90.4113C89.3748 33.2939 84.4265 37.9924 78.503 37.9924Z" fill="black"/>
<path d="M37.4063 22.3402C36.4757 23.0674 35.5117 23.7207 34.4808 24.2889C33.3607 24.9025 32.1793 25.3684 30.9478 25.7036C30.6971 25.7717 30.4407 25.8229 30.1844 25.8626C30.112 25.7831 30.0395 25.7036 29.9671 25.6183C29.0699 24.5502 28.4737 23.2549 28.0446 21.9198C27.4762 20.1585 27.1864 18.3064 27.1753 16.4543C27.1753 15.6248 27.2199 14.7214 27.5932 13.9658C27.8997 13.3465 28.5963 12.8807 29.2872 13.0284C30.2457 13.2329 30.4853 14.3806 30.8642 15.1419C31.7837 16.9883 33.3161 18.4996 35.116 19.4427C35.885 19.846 36.7042 20.1472 37.4453 20.6017C37.8354 20.8403 38.2032 21.1357 38.5096 21.4823C38.1474 21.8061 37.7184 22.0902 37.4063 22.3345V22.3402Z" fill="white"/>
<path d="M61.5405 51.5823C62.9962 51.5823 64.1763 50.3791 64.1763 48.895C64.1763 47.4108 62.9962 46.2077 61.5405 46.2077C60.0849 46.2077 58.9048 47.4108 58.9048 48.895C58.9048 50.3791 60.0849 51.5823 61.5405 51.5823Z" fill="black"/>
<path d="M38.4595 51.5823C39.9152 51.5823 41.0953 50.3791 41.0953 48.895C41.0953 47.4108 39.9152 46.2077 38.4595 46.2077C37.0038 46.2077 35.8237 47.4108 35.8237 48.895C35.8237 50.3791 37.0038 51.5823 38.4595 51.5823Z" fill="white"/>
</g>
<defs>
<clipPath id="clip0_29_2213">
<rect x="6" y="13" width="88" height="74" rx="20" fill="white"/>
</clipPath>
</defs>
</svg>
