<svg width="1440" height="290" viewBox="0 0 1440 290" fill="none" xmlns="http://www.w3.org/2000/svg">
<g clip-path="url(#clip0_4_638)">
<path d="M1440 0H0V460H1440V0Z" fill="black"/>
<path d="M891.297 246.508C881.631 238.241 869.375 233.014 856.695 231.755C844.014 230.495 830.967 233.204 819.851 239.405C813.684 242.845 808.01 247.445 804.318 253.451C800.627 259.457 799.106 266.998 801.243 273.707C803.832 281.837 811.228 287.682 814.204 295.684C819.355 309.525 809.965 324.75 811.682 339.413C813.446 354.438 827.4 366.217 842.407 368.522C857.415 370.827 872.785 365.058 884.94 355.987C898.617 345.785 909.366 330.385 909.967 313.374C910.568 296.43 901.359 280.83 897.492 264.318C895.67 256.53 896.023 250.837 891.292 246.508H891.297Z" fill="#201D1D"/>
<path d="M76.0566 307.335C78.4887 310.138 81.6171 312.448 84.9076 314.187C96.2478 320.179 110.383 320.62 122.076 315.346C133.769 310.072 142.768 299.205 145.734 286.76C149.024 272.971 145.166 258.568 140.803 245.078C136.439 231.588 131.47 217.794 132.529 203.663C132.949 198.094 134.279 192.32 132.415 187.056C129.353 178.412 119.186 174.777 110.125 173.19C91.0403 169.84 70.0622 171.042 54.2345 182.176C44.7684 188.833 37.9156 198.464 29.8706 206.77C24.2863 212.534 18.0629 217.723 13.0747 224.005C8.08655 230.291 4.32396 238.008 4.76746 246.01C5.16327 253.18 8.88295 259.785 13.3943 265.387C17.9103 270.989 23.2848 275.855 27.8295 281.429C31.9021 286.423 35.2975 291.968 39.7754 296.605C44.2485 301.243 50.1381 305.016 56.595 305.111C59.8903 305.158 63.1427 304.251 66.4379 304.27C69.7332 304.294 73.0523 304.104 76.0566 307.335Z" fill="#201D1D"/>
<path d="M206.379 8.554C199.107 7.29955 191.524 7.80324 184.719 10.583C176.068 14.1135 168.877 21.5451 166.631 30.5875C165.172 36.4511 165.782 42.5997 165.687 48.6439C165.372 68.9478 157.069 88.3917 155.744 108.653C155.31 115.334 155.672 122.224 158.309 128.382C160.947 134.535 166.168 139.871 172.726 141.311C181.92 143.331 191.086 137.581 200.499 137.59C208.425 137.6 215.688 141.648 223.189 144.195C241.597 150.449 262.952 147.293 278.746 135.989C284.354 131.979 289.719 125.512 287.797 118.902C285.694 111.656 276.176 108.947 273.119 102.048C271.402 98.1706 272.084 93.59 273.858 89.7411C275.637 85.8923 278.408 82.6089 281.021 79.2684C286.438 72.3452 291.341 64.8804 294.159 56.5649C296.977 48.2495 297.578 38.9647 294.469 30.7491C291.364 22.5334 284.192 15.6388 275.513 14.1135C266.934 12.6072 258.359 16.266 249.675 16.9882C243.109 17.5347 236.532 16.3943 230.061 15.1683C222.159 13.6716 214.214 10.3121 206.37 8.54926L206.379 8.554Z" fill="#201D1D"/>
<path d="M321.184 186.813C338.59 210.467 375.191 208.766 403.966 202.484C410.237 201.116 417.152 198.559 419.608 192.648C421.573 187.92 420.023 182.575 419.822 177.462C419.369 166.029 425.841 155.4 433.595 146.965C441.354 138.527 450.6 131.475 457.739 122.513C464.878 113.552 469.828 101.791 466.962 90.7104C464.621 81.6632 457.372 74.5072 449.112 70.0929C437.157 63.7019 422.598 62.3334 409.655 66.3818C397.619 70.1451 386.269 78.4416 373.751 76.8735C363.626 75.6048 355.281 68.0306 345.271 66.0492C335.19 64.0535 324.35 68.3158 317.579 76.023C310.812 83.7302 307.993 94.4737 309.081 104.661C310.726 120.071 320.612 134.046 320.402 149.541C320.316 155.918 318.499 162.142 317.722 168.472C316.944 174.806 317.359 181.7 321.179 186.823L321.184 186.813Z" fill="#201D1D"/>
<path d="M1279.07 119.292C1270.85 125.697 1263.63 135.752 1259.14 145.873C1254.1 157.224 1253.72 171.479 1261.44 181.22C1266.78 187.944 1275.02 191.551 1281.98 196.573C1290.39 202.636 1297 210.838 1304.97 217.452C1324.42 233.579 1352.16 239.186 1376.38 231.878C1387.15 228.628 1397.75 222.398 1402.65 212.296C1405.98 205.425 1406.33 197.481 1405.61 189.887C1404.88 182.29 1403.15 174.81 1402.55 167.203C1401.82 157.904 1402.79 148.529 1401.96 139.239C1401.14 129.95 1398.18 120.318 1391.18 114.136C1388.1 111.423 1384.12 109.446 1380.03 109.755C1374.88 110.145 1370.76 113.918 1366.44 116.731C1357.82 122.338 1347.28 124.481 1336.99 124.314C1326.7 124.148 1316.57 121.796 1306.66 119.021C1297.48 116.446 1286.8 113.718 1279.07 119.297L1279.07 119.292Z" fill="#201D1D"/>
<path d="M494.335 392.532C504.502 390.19 515.309 384.117 523.673 376.837C533.053 368.669 539.448 355.911 536.582 343.837C534.603 335.498 528.661 328.76 524.484 321.271C519.438 312.238 516.93 302.022 512.509 292.666C501.727 269.858 478.961 253.094 453.915 249.521C442.77 247.929 430.524 249.108 421.797 256.202C415.864 261.025 412.178 268.076 409.612 275.266C407.047 282.455 405.44 289.963 402.755 297.109C399.474 305.843 394.619 313.93 391.429 322.702C388.238 331.468 386.822 341.438 390.551 349.995C392.187 353.749 394.958 357.218 398.801 358.662C403.632 360.477 408.969 358.795 414.076 358.068C424.262 356.614 434.73 359.114 443.986 363.599C453.242 368.085 461.421 374.481 469.223 381.171C476.452 387.372 484.974 394.343 494.345 392.542L494.335 392.532Z" fill="#201D1D"/>
<path d="M1448.94 260.825C1437.63 255.912 1425.48 252.681 1413.15 252.42C1400.82 252.163 1388.28 254.976 1377.78 261.419C1367.31 267.844 1359.24 277.561 1352.66 287.915C1346.97 296.853 1342.18 306.631 1340.93 317.137C1339.67 327.643 1342.4 339.014 1349.99 346.422C1355.69 351.986 1363.52 354.851 1371.34 356.415C1379.16 357.983 1387.17 358.401 1395 359.912C1408.28 362.473 1421.2 368.166 1434.7 367.429C1449.92 366.593 1463.99 357.208 1472.15 344.379C1480.3 331.549 1482.89 315.683 1481.11 300.602C1480.01 291.379 1477.26 282.146 1471.66 274.729C1466.05 267.311 1459.98 265.606 1448.95 260.825H1448.94Z" fill="#201D1D"/>
<path d="M1267.36 39.4114C1254.84 24.168 1237.66 12.1225 1218.21 8.54925C1198.77 4.97599 1177.15 10.8443 1164.27 25.7836C1153.97 37.715 1150.02 53.8802 1140.85 66.6907C1137.33 71.604 1133.09 75.9755 1129.69 80.9743C1126.3 85.973 1123.73 91.8651 1124.24 97.8807C1124.86 105.336 1129.96 111.585 1135.14 116.997C1142.02 124.196 1149.72 131.047 1159.12 134.378C1171.63 138.807 1185.47 136.464 1198.3 133.067C1213.18 129.128 1228.17 123.559 1239.32 112.972C1249.76 103.06 1255.95 89.6223 1261.9 76.5314C1264.6 70.5776 1267.32 64.5667 1268.7 58.1757C1270.08 51.7847 1271.8 45.4508 1267.37 39.4066L1267.36 39.4114Z" fill="#201D1D"/>
<path d="M927.86 222.793C921.498 235.128 915.017 247.839 913.682 261.642C912.347 275.446 917.34 290.784 929.338 297.807C940.149 304.132 953.654 302.45 966.101 300.948C978.548 299.447 992.382 298.672 1002.34 306.261C1010.26 312.295 1014.04 322.478 1021.71 328.822C1032.96 338.144 1051.29 336.343 1061.63 326.013C1071.96 315.683 1074.1 298.672 1068.1 285.368C1060.92 269.459 1043.69 258.136 1041.65 240.811C1040.91 234.501 1042.36 228.105 1041.8 221.776C1041.12 214.225 1037.45 206.965 1031.7 201.995C1025.95 197.02 1018.21 194.401 1010.61 194.934C990.622 196.331 975.853 217.761 955.815 217.585C950.221 217.537 944.651 215.741 939.105 216.501C935.333 217.019 930.592 217.314 927.865 222.797L927.86 222.793Z" fill="#201D1D"/>
<path d="M-33.5356 35.8096C-39.8972 48.1449 -46.378 60.8556 -47.7133 74.6592C-49.0486 88.4629 -44.0556 103.801 -32.0572 110.824C-21.2463 117.149 -7.74101 115.467 4.70562 113.965C17.1523 112.459 30.9866 111.689 40.9439 119.277C48.8649 125.312 52.6418 135.495 60.3101 141.838C71.5693 151.161 89.8911 149.36 100.23 139.03C110.569 128.7 112.705 111.689 106.706 98.3844C99.5289 82.4758 82.2896 71.1525 80.2581 53.8279C79.5189 47.5177 80.9686 41.1219 80.4059 34.7927C79.7288 27.2423 76.052 19.9817 70.3056 15.0115C64.5591 10.0365 56.8098 7.41829 49.2178 7.95048C29.2269 9.34747 14.4579 30.7775 -5.58074 30.6017C-11.1746 30.5542 -16.7445 28.7581 -22.2907 29.5183C-26.0628 30.0363 -30.803 30.3309 -33.5308 35.8143L-33.5356 35.8096Z" fill="#201D1D"/>
<path d="M975.248 185.872C983.359 183.373 990.489 177.723 995.067 170.591C1000.46 162.185 1002.12 151.484 999.507 141.848C994.242 122.404 973.946 110.572 965.91 92.0932C961.237 81.3544 960.731 68.4678 952.858 59.7818C946.554 52.8253 936.72 50.1216 927.326 49.5942C913.291 48.8054 899.333 52.1173 885.985 56.5079C877.406 59.3304 868.741 62.7516 862.16 68.924C855.579 75.0917 851.458 84.6045 853.943 93.2573C856.924 103.63 868.04 109.774 872.193 119.734C878.622 135.162 866.251 152.9 870.224 169.127C872.093 176.763 877.539 183.23 884.187 187.459C890.839 191.693 898.622 193.865 906.433 194.972C929.534 198.25 952.848 192.662 975.248 185.858V185.872Z" fill="#201D1D"/>
<path d="M571.857 21.0272C560.674 24.7335 552.195 26.33 543.416 34.4697C534.637 42.6093 528.451 53.2055 523.969 64.2912C519.543 75.2248 516.639 87.0327 517.75 98.7693C518.861 110.506 524.407 122.186 534.16 128.866C542.853 134.82 553.74 136.284 563.898 139.121C575.486 142.361 586.445 147.55 598.005 150.881C609.564 154.212 622.259 155.58 633.447 151.161C642.741 147.488 650.371 139.819 653.972 130.525C657.572 121.23 657.1 110.444 652.698 101.497C649.837 95.6855 645.431 90.6582 643.232 84.5666C640.562 77.1587 641.43 68.9573 639.722 61.2691C637.2 49.9031 629.198 40.4378 620.027 33.22C606.488 22.562 588.291 15.7718 571.857 21.0177V21.0272Z" fill="#201D1D"/>
<path d="M651.792 162.679C648.702 170.757 646.413 179.111 646.203 187.711C645.912 199.742 650.314 212.444 660.038 219.576C665.131 223.311 671.497 225.454 675.608 230.239C680.281 235.679 681.068 243.401 680.877 250.562C680.687 257.722 679.761 265.054 681.788 271.925C684.478 281.053 692.237 288.133 701.097 291.683C709.953 295.232 719.805 295.603 729.3 294.591C737.264 293.74 745.228 291.911 752.267 288.095C759.301 284.279 765.367 278.34 768.271 270.903C771.843 261.761 770.374 251.507 771.89 241.814C774.151 227.378 782.854 214.919 789.263 201.781C795.672 188.642 799.745 172.591 792.692 159.785C789.721 154.397 784.075 149.764 777.952 150.534C773.397 151.104 769.768 154.43 766.111 157.191C753.464 166.732 737.231 170.8 721.369 170.615C705.508 170.429 689.929 166.238 675.107 160.603C671.073 159.068 667 157.405 662.694 157.125C658.388 156.844 654.143 156.222 651.788 162.679H651.792Z" fill="#201D1D"/>
<path d="M1062.04 162.679C1058.95 170.757 1056.67 179.111 1056.46 187.711C1056.16 199.742 1060.57 212.444 1070.3 219.576C1075.39 223.311 1081.75 225.454 1085.87 230.239C1090.54 235.679 1091.33 243.401 1091.13 250.562C1090.94 257.722 1090.02 265.054 1092.05 271.925C1094.74 281.053 1102.49 288.133 1111.35 291.683C1120.21 295.232 1130.06 295.603 1139.56 294.591C1147.52 293.74 1155.49 291.911 1162.52 288.095C1169.56 284.279 1175.62 278.34 1178.53 270.903C1182.1 261.761 1180.63 251.507 1182.15 241.814C1184.41 227.378 1193.11 214.919 1199.52 201.781C1205.93 188.642 1210 172.591 1202.95 159.785C1199.98 154.397 1194.33 149.764 1188.21 150.534C1183.65 151.104 1180.03 154.43 1176.37 157.191C1163.72 166.732 1147.49 170.8 1131.63 170.615C1115.77 170.429 1100.19 166.238 1085.36 160.603C1081.33 159.068 1077.26 157.405 1072.95 157.125C1068.65 156.844 1064.4 156.222 1062.04 162.679Z" fill="#201D1D"/>
<path d="M1107.69 77.2632C1113.28 70.7819 1116.8 62.571 1117.65 54.0702C1118.51 45.5695 1116.68 36.8264 1112.49 29.3758C1110.17 25.2418 1107.06 21.4405 1103.01 18.9649C1098.96 16.4892 1093.86 15.4724 1089.33 16.9026C1083.84 18.6417 1079.89 23.5977 1074.5 25.5887C1065.15 29.0384 1054.87 22.7472 1044.97 23.8971C1034.83 25.0803 1026.87 34.4316 1025.32 44.4909C1023.77 54.5502 1027.66 64.8518 1033.78 73.0009C1040.67 82.1669 1051.07 89.3704 1062.55 89.7743C1073.99 90.1782 1084.52 84.001 1095.67 81.4114C1100.93 80.1902 1104.77 80.4278 1107.69 77.2584V77.2632Z" fill="#201D1D"/>
<path d="M174.991 230.348C174.991 236.154 175.41 239.965 176.736 245.549C178.062 251.132 180.494 256.577 184.528 260.664C189.96 266.161 197.662 268.665 205.049 270.98C214.872 274.059 224.777 277.157 235.011 278.292C241.95 279.067 249.68 278.672 254.859 274.011C258.884 270.386 260.567 264.893 261.86 259.642C265.565 244.617 267.558 229.179 267.787 213.708C267.849 209.417 267.711 204.874 265.431 201.23C263.152 197.585 259.122 195.466 255.283 193.513C249.308 190.472 243.276 187.412 236.795 185.673C230.314 183.938 223.261 183.61 216.995 186.005C205.402 190.439 199.164 202.736 189.931 211.013C186.789 213.831 183.255 216.207 180.318 219.234C177.38 222.256 175.005 226.138 174.981 230.348H174.991Z" fill="#201D1D"/>
<path d="M629.856 210.671C625.53 205.159 618.744 200.322 611.911 197.314C604.247 193.941 594.624 193.679 588.047 198.859C583.508 202.432 581.075 207.958 577.68 212.624C573.588 218.26 568.047 222.688 563.583 228.034C552.696 241.068 548.91 259.666 553.845 275.897C556.039 283.12 560.245 290.224 567.065 293.507C571.705 295.74 577.065 295.973 582.196 295.489C587.327 295.004 592.373 293.845 597.509 293.445C603.785 292.956 610.118 293.602 616.389 293.051C622.66 292.495 629.164 290.518 633.337 285.824C635.168 283.761 636.504 281.091 636.294 278.349C636.031 274.9 633.485 272.134 631.587 269.24C627.8 263.467 626.355 256.397 626.465 249.497C626.58 242.598 628.163 235.812 630.042 229.169C631.782 223.011 633.623 215.855 629.856 210.676V210.671Z" fill="#201D1D"/>
<path d="M366.249 311.906C376.541 303.514 384.671 291.996 387.084 278.962C389.497 265.933 385.535 251.441 375.448 242.802C367.394 235.903 356.483 233.256 347.832 227.107C344.513 224.751 341.566 221.9 338.19 219.623C334.813 217.347 330.836 215.632 326.773 215.965C321.742 216.378 317.522 219.804 313.864 223.273C309.004 227.887 304.379 233.042 302.128 239.348C299.138 247.73 300.721 257.01 303.015 265.605C305.676 275.584 309.434 285.629 316.582 293.103C323.273 300.103 332.348 304.251 341.184 308.237C345.205 310.053 349.263 311.877 353.579 312.799C357.894 313.721 362.167 314.871 366.249 311.906Z" fill="#201D1D"/>
<path d="M542.543 160.08C531.685 152.43 518.375 147.688 505.127 148.842C491.879 149.997 478.918 157.662 473.248 169.645C468.717 179.22 469.065 190.405 465.422 200.351C464.025 204.166 462.055 207.758 460.749 211.607C459.447 215.456 458.846 219.733 460.248 223.544C461.988 228.267 466.423 231.408 470.753 233.992C476.509 237.433 482.733 240.502 489.428 240.982C498.332 241.624 506.887 237.632 514.593 233.142C523.535 227.929 532.252 221.643 537.579 212.79C542.567 204.499 544.165 194.682 545.667 185.131C546.349 180.788 547.036 176.402 546.778 172.016C546.521 167.631 546.497 163.216 542.539 160.085L542.543 160.08Z" fill="#201D1D"/>
<path d="M1307.56 260.303C1296.7 252.652 1283.39 247.91 1270.15 249.065C1256.9 250.219 1243.94 257.884 1238.27 269.868C1233.74 279.442 1234.09 290.628 1230.44 300.573C1229.04 304.389 1227.07 307.981 1225.77 311.83C1224.47 315.679 1223.87 319.955 1225.27 323.766C1227.01 328.489 1231.44 331.63 1235.77 334.215C1241.53 337.655 1247.75 340.725 1254.45 341.205C1263.35 341.846 1271.91 337.855 1279.61 333.364C1288.55 328.152 1297.27 321.865 1302.6 313.013C1307.59 304.721 1309.18 294.904 1310.69 285.353C1311.37 281.01 1312.06 276.625 1311.8 272.239C1311.54 267.848 1311.52 263.439 1307.56 260.307L1307.56 260.303Z" fill="#201D1D"/>
<path d="M70.7634 -71.6021C65.8134 -83.6191 56.1327 -90.2001 44.2583 -93.9207C32.3839 -97.6413 18.2825 -95.0706 9.72723 -86.0614C3.14148 -79.1192 0.442327 -69.4591 -4.54586 -61.3005C-9.18593 -53.7168 -15.786 -47.4778 -20.4928 -39.9322C-25.1996 -32.3913 -27.8273 -22.5458 -23.6689 -14.6913C-21.2892 -10.1962 -17.0211 -6.99355 -12.5623 -4.53218C-5.26595 -0.502762 2.90781 1.94434 11.2294 2.59058C16.8757 3.02773 23.0847 2.43851 27.2288 -1.41034C29.9375 -3.92873 31.3777 -7.49248 33.5618 -10.4765C36.7951 -14.8956 41.5496 -17.9082 46.0371 -21.0538C54.3539 -26.8841 62.2558 -33.6885 67.3776 -42.441C72.4993 -51.1936 74.5117 -62.1938 70.7539 -71.6116L70.7634 -71.6021Z" fill="#201D1D"/>
<path d="M1471.88 5.14712C1464.61 -5.63918 1453.81 -10.158 1441.43 -11.4315C1429.05 -12.7097 1415.74 -7.3783 1409.18 3.15616C1404.12 11.272 1403.42 21.279 1400.17 30.2645C1397.15 38.6227 1391.94 46.0495 1388.84 54.3792C1385.74 62.7089 1385.14 72.8775 1390.8 79.7436C1394.03 83.6733 1398.86 85.9588 1403.72 87.4841C1411.68 89.9787 1420.18 90.7438 1428.46 89.7174C1434.08 89.0189 1440.05 87.2038 1443.34 82.6089C1445.49 79.6011 1446.18 75.8235 1447.72 72.4641C1450 67.4891 1454.06 63.5927 1457.82 59.6156C1464.8 52.2457 1471.18 44.0016 1474.44 34.4079C1477.7 24.8095 1477.46 13.6289 1471.89 5.15661L1471.88 5.14712Z" fill="#201D1D"/>
<path d="M18.2251 156.901C10.9622 146.115 0.156029 141.596 -12.2238 140.323C-24.6037 139.044 -37.9087 144.376 -44.4754 154.91C-49.5351 163.026 -50.2361 173.033 -53.4837 182.019C-56.5024 190.377 -61.7147 197.804 -64.8144 206.133C-67.9142 214.463 -68.5103 224.632 -62.8545 231.498C-59.6212 235.427 -54.7952 237.713 -49.9309 239.238C-41.9718 241.733 -33.469 242.498 -25.1903 241.472C-19.5726 240.773 -13.6068 238.958 -10.3163 234.363C-8.16557 231.355 -7.46931 227.578 -5.92899 224.218C-3.64949 219.243 0.404015 215.347 4.17139 211.37C11.1482 204 17.5241 195.756 20.786 186.162C24.0431 176.564 23.8094 165.383 18.2346 156.911L18.2251 156.901Z" fill="#201D1D"/>
<path d="M782.577 51.7753C776.874 50.098 770.379 50.9865 765.152 53.9421C758.399 57.7529 753.697 64.5953 751.451 71.9984C749.205 79.3968 749.248 87.3321 750.388 94.9775C751.78 104.3 755.176 113.946 762.696 119.667C771.585 126.424 783.836 126.092 794.976 125.117C806.111 124.143 818.11 123.008 827.748 128.653C830.471 130.249 832.898 132.335 835.707 133.775C838.52 135.21 841.954 135.937 844.825 134.616C848.43 132.958 849.989 128.691 850.552 124.775C851.868 115.562 849.527 105.878 844.148 98.2704C840.519 93.1386 835.549 88.8764 833.003 83.1364C829.564 75.3959 831.024 66.0256 826.932 58.6082C824.18 53.6142 819.097 50.1075 813.565 48.663C808.038 47.2185 802.11 47.7174 796.66 49.4375C791.986 50.9153 787.365 53.0583 782.572 51.7848L782.577 51.7753Z" fill="#201D1D"/>
<path d="M743.33 -104.061C720.316 -111.673 693.544 -106.76 674.754 -91.4878C668.269 -86.2135 662.432 -79.1667 661.859 -70.8513C661.445 -64.8024 663.867 -58.9293 664.454 -52.89C665.374 -43.4626 661.783 -34.1779 657.367 -25.7864C652.951 -17.3997 647.62 -9.40738 644.582 -0.436218C641.539 8.53494 641.096 18.9981 646.213 26.9809C651.125 34.6406 660.257 38.6463 669.251 40.1621C687.449 43.2317 706.949 37.3396 720.368 24.7191C727.97 17.5679 733.616 8.51119 741.465 1.63076C746.487 -2.77404 752.31 -6.2 757.269 -10.6713C771.891 -23.862 777.203 -46.67 768.982 -64.5363C763.855 -75.679 754.246 -84.4221 749.816 -95.8594C748.142 -100.174 747.298 -102.93 743.33 -104.061Z" fill="#201D1D"/>
<path d="M378.925 -75.3939C372.563 -63.0586 366.082 -50.3478 364.747 -36.5442C363.412 -22.7406 368.405 -7.40219 380.403 -0.379219C391.214 5.94526 404.719 4.26316 417.166 2.76163C429.613 1.25535 443.447 0.485588 453.404 8.07401C461.325 14.1086 465.102 24.2915 472.771 30.635C484.03 39.9577 502.352 38.1569 512.69 27.8267C523.029 17.4966 525.166 0.485588 519.167 -12.8191C511.989 -28.7277 494.75 -40.051 492.719 -57.3756C491.979 -63.6858 493.429 -70.0815 492.866 -76.4108C492.189 -83.9612 488.512 -91.2217 482.766 -96.192C477.02 -101.162 469.27 -103.785 461.678 -103.253C441.687 -101.856 426.918 -80.4259 406.88 -80.6017C401.286 -80.6493 395.716 -82.4454 390.17 -81.6851C386.398 -81.1672 381.657 -80.8726 378.93 -75.3892L378.925 -75.3939Z" fill="#201D1D"/>
<path d="M939.715 -20.2221C937.211 -11.7737 938.542 -2.15628 942.943 5.58895C948.628 15.5865 958.838 22.5572 969.882 25.8786C980.922 29.2048 992.758 29.143 1004.17 27.4562C1018.08 25.3939 1032.47 20.3619 1041 9.22874C1051.08 -3.9334 1050.58 -22.0848 1049.13 -38.5826C1047.67 -55.0804 1045.98 -72.8469 1054.4 -87.1257C1056.78 -91.1599 1059.89 -94.7522 1062.04 -98.9194C1064.18 -103.087 1065.26 -108.171 1063.29 -112.424C1060.81 -117.769 1054.45 -120.074 1048.61 -120.905C1034.86 -122.854 1020.41 -119.39 1009.06 -111.421C1001.41 -106.047 995.047 -98.6866 986.483 -94.9137C974.932 -89.8247 960.955 -91.9819 949.887 -85.9236C942.438 -81.8466 937.206 -74.3152 935.051 -66.1281C932.895 -57.9362 933.644 -49.1598 936.21 -41.0915C938.413 -34.1683 941.613 -27.3259 939.715 -20.2269V-20.2221Z" fill="#201D1D"/>
<path d="M1326.34 -55.7789C1325.98 -62.5548 1321.89 -68.2805 1317.03 -72.2719C1312.16 -76.2633 1305.62 -78.4111 1299.42 -77.2945C1294.7 -76.4487 1290.46 -73.8352 1285.76 -72.8564C1277.99 -71.2313 1270.11 -74.2249 1262.45 -76.3394C1254.8 -78.4491 1245.87 -79.4802 1239.55 -74.681C1234 -70.4615 1232.19 -62.9919 1231.55 -56.064C1231.07 -50.7896 1231.07 -45.3822 1232.59 -40.3074C1234.1 -35.2326 1237.29 -30.4809 1241.96 -27.9626C1245.69 -25.9526 1250.03 -25.4869 1254.09 -24.2848C1258.14 -23.0826 1262.32 -20.7448 1263.68 -16.7486C1264.79 -13.5127 1263.84 -9.73988 1265.4 -6.69881C1266.43 -4.70786 1268.37 -3.35838 1270.36 -2.30351C1277.62 1.55009 1286.44 2.40538 1294.32 0.0152893C1297.86 -1.05859 1301.21 -2.75493 1304.84 -3.50095C1308.46 -4.24696 1312.62 -3.85257 1315.26 -1.25816C1316.38 -0.155769 1317.13 1.25549 1318.15 2.44816C1319.18 3.64083 1320.63 4.65768 1322.2 4.50087C1323.88 4.33456 1325.13 2.89957 1326.06 1.49307C1328.54 -2.25125 1330.09 -6.59428 1330.55 -11.0513C1331.18 -17.2333 1329.75 -23.4105 1328.68 -29.5306C1327.17 -38.1977 1326.39 -46.9883 1326.34 -55.7836L1326.34 -55.7789Z" fill="#201D1D"/>
</g>
<defs>
<clipPath id="clip0_4_638">
<rect width="1440" height="290" fill="white"/>
</clipPath>
</defs>
</svg>
