<svg width="156" height="47" viewBox="0 0 156 47" fill="none" xmlns="http://www.w3.org/2000/svg">
<g clip-path="url(#clip0_28_1286)">
<path d="M36.0141 5.93228C36.6063 6.39416 37.2198 6.80913 37.8758 7.16998C38.5886 7.55969 39.3404 7.85558 40.1241 8.06848C40.2836 8.11178 40.4468 8.14426 40.6099 8.16951C40.656 8.119 40.7021 8.06848 40.7482 8.01435C41.3191 7.33596 41.6985 6.51324 41.9716 5.66525C42.3333 4.54664 42.5177 3.37028 42.5248 2.19393C42.5248 1.6671 42.4964 1.09335 42.2588 0.61343C42.0638 0.22011 41.6205 -0.0757829 41.1808 0.0180367C40.5709 0.147941 40.4184 0.876847 40.1773 1.36038C39.5922 2.53312 38.617 3.49297 37.4716 4.09197C36.9822 4.34817 36.4609 4.53942 35.9893 4.82809C35.7411 4.97965 35.507 5.16729 35.312 5.3874C35.5425 5.59308 35.8156 5.77351 36.0141 5.92867V5.93228Z" fill="black"/>
<path d="M16.4398 6.41582C16.61 6.11271 16.8547 5.88177 17.1419 5.73743C19.5675 3.57958 23.0887 3.24399 25.8831 4.96161L28.0036 6.26426V8.03601C27.7058 8.03601 27.4043 7.95302 27.1384 7.79064C27.1384 7.79064 24.0639 6.10188 22.337 6.10188C17.8512 6.10188 17.7838 9.15102 17.1277 8.77213L17.0675 8.73605C16.2625 8.27056 15.9824 7.23133 16.4398 6.41221V6.41582Z" fill="black"/>
<path d="M38.8617 5.73743C39.1454 5.88177 39.3936 6.11271 39.5638 6.41582C40.0213 7.23494 39.7411 8.27417 38.9362 8.73966L38.8759 8.77574C38.2199 9.15463 38.1525 6.10549 33.6667 6.10549C31.9397 6.10549 28.8652 7.79425 28.8652 7.79425C28.5993 7.95663 28.2979 8.03962 28 8.03962V6.26788L30.1206 4.96523C32.9113 3.25121 36.4362 3.58319 38.8617 5.74104V5.73743Z" fill="black"/>
<path d="M28.6631 23.4621C28.6631 14.3111 35.9787 6.86688 44.9716 6.86688H54.6348C55.3865 6.86688 55.9965 7.48753 55.9965 8.25253C55.9965 13.9863 51.4149 18.6485 45.7801 18.6485H41.0532C40.5426 21.2321 40.3794 23.823 40.3333 26.4499C40.3546 31.6894 37.461 32.9271 35.1596 36.7845L36.0957 39.5161C36.695 41.259 36.4362 43.1245 35.3865 44.6293C34.3369 46.134 32.6915 47 30.8759 47H25.1206C23.305 47 21.6631 46.1376 20.6099 44.6293C19.5603 43.1245 19.3014 41.259 19.8972 39.5161L20.8333 36.7917C19.9574 35.3339 18.9787 34.1431 17.8511 32.8044C16.695 31.4007 15.9007 29.629 15.734 27.8031C15.6383 26.919 15.6702 26.0241 15.6312 25.14C15.539 22.9533 15.3688 20.8027 14.9397 18.6485H10.2128C4.58156 18.6485 0 13.9863 0 8.25253C0 7.48753 0.609929 6.86688 1.3617 6.86688H11.0248C20.0177 6.86688 27.3333 14.3111 27.3333 23.4621C27.3333 25.3313 27.0248 27.1752 26.422 28.9361L22.4752 40.429C22.1489 41.3744 22.1206 42.5255 22.7376 43.3519C23.4291 44.2684 25.2624 45.5242 26.3759 44.604C26.6064 44.4128 26.7518 44.0952 26.6809 43.7993C26.6241 43.5648 26.4397 43.3771 26.2376 43.2508C25.8227 42.991 25.3227 42.9297 24.8511 42.8214C24.1489 42.659 23.4965 42.2766 23.3688 41.4971C23.266 40.8801 23.6206 40.1945 24.2057 39.9924C24.8156 39.7831 25.4752 40.1007 25.9858 40.4976C26.9326 41.2301 27.734 42.2946 27.9965 43.4782C28.2589 42.2946 29.0638 41.2301 30.0071 40.4976C30.5177 40.1007 31.1809 39.7831 31.7872 39.9924C32.3723 40.1909 32.727 40.8765 32.6241 41.4971C32.4929 42.2766 31.844 42.659 31.1418 42.8214C30.6667 42.9297 30.1667 42.991 29.7553 43.2508C29.5532 43.3771 29.3688 43.5648 29.3121 43.7993C29.2411 44.0952 29.3865 44.4128 29.617 44.604C30.7305 45.5242 32.5638 44.2684 33.2553 43.3519C33.8759 42.5291 33.844 41.3744 33.5213 40.429L29.5745 28.9361C28.9681 27.1716 28.6631 25.3313 28.6596 23.4621H28.6631Z" fill="black"/>
<path d="M20.7623 33.5766C19.3367 32.5157 17.968 31.6605 17.1346 30.0908C15.8899 27.7994 16.4112 25.0282 16.5282 22.5131C16.5353 22.4301 16.5424 22.3435 16.5495 22.2605C16.7375 20.2361 17.702 18.367 19.2162 17.0427C19.9183 16.4292 20.3403 15.8771 19.5743 15.8771H10.2162C6.55306 15.8771 2.57788 12.3048 1.93604 8.76129H10.7587C18.0247 8.76129 24.8013 14.1343 25.1843 21.5171C25.28 23.325 24.4325 26.3236 23.8474 28.0268L21.702 34.273C21.3828 34.0457 21.0708 33.8147 20.7587 33.5802L20.7623 33.5766ZM46.1382 15.8735H33.6311C36.1346 11.713 40.4325 8.95976 45.3048 8.95976H53.7162C53.0566 12.8894 49.9077 15.8735 46.1382 15.8735Z" fill="white"/>
<path d="M19.9857 5.93228C19.3935 6.39416 18.7801 6.80913 18.124 7.16998C17.4113 7.55969 16.6595 7.85558 15.8758 8.06848C15.7162 8.11178 15.5531 8.14426 15.39 8.16951C15.3439 8.119 15.2978 8.06848 15.2517 8.01435C14.6808 7.33596 14.3013 6.51324 14.0283 5.66525C13.6666 4.54664 13.4822 3.37028 13.4751 2.19393C13.4751 1.6671 13.5035 1.09335 13.7411 0.61343C13.9361 0.22011 14.3794 -0.0757829 14.8191 0.0180367C15.429 0.147941 15.5815 0.876847 15.8226 1.36038C16.4077 2.53312 17.3829 3.49297 18.5283 4.09197C19.0177 4.34817 19.5389 4.53942 20.0106 4.82809C20.2588 4.97965 20.4928 5.16729 20.6879 5.3874C20.4574 5.59308 20.1843 5.77351 19.9857 5.92867V5.93228Z" fill="black"/>
<path d="M35.3438 24.505C36.2702 24.505 37.0211 23.7408 37.0211 22.7982C37.0211 21.8555 36.2702 21.0914 35.3438 21.0914C34.4175 21.0914 33.6665 21.8555 33.6665 22.7982C33.6665 23.7408 34.4175 24.505 35.3438 24.505Z" fill="white"/>
<path d="M20.6558 24.505C21.5822 24.505 22.3331 23.7408 22.3331 22.7982C22.3331 21.8555 21.5822 21.0914 20.6558 21.0914C19.7295 21.0914 18.9785 21.8555 18.9785 22.7982C18.9785 23.7408 19.7295 24.505 20.6558 24.505Z" fill="black"/>
</g>
<g clip-path="url(#clip1_28_1286)">
<path d="M65.8097 33.7396C65.6541 34.0616 65.4454 34.304 65.1798 34.463C64.9179 34.6221 64.6068 34.7054 64.2463 34.7054C63.5291 34.7054 62.9751 34.4176 62.5843 33.8381C62.1934 33.2586 61.9961 32.4291 61.9961 31.3421C61.9961 29.1453 62.6791 27.2629 64.0452 25.6911C65.4112 24.1193 67.0543 23.3352 68.9668 23.3352C70.2835 23.3352 71.3119 23.661 72.0518 24.3124C72.7917 24.9639 73.1636 25.8691 73.1636 27.0281C73.1636 27.6606 73.0498 28.4901 72.8183 29.5089C72.5868 30.5278 72.2188 31.8307 71.7141 33.4101C73.7859 29.7248 75.5239 27.1493 76.9317 25.6797C78.3395 24.2102 79.7283 23.4754 81.1019 23.4754C81.9216 23.4754 82.5591 23.7329 83.0144 24.248C83.4698 24.7631 83.6974 25.4828 83.6974 26.4107C83.6974 27.5583 82.9765 29.7248 81.5307 32.9026L81.212 33.5768C83.614 29.9028 85.6327 27.2781 87.2682 25.7025C88.9036 24.1268 90.3987 23.339 91.761 23.339C92.5161 23.339 93.1346 23.5928 93.6166 24.1041C94.0985 24.6154 94.3413 25.2669 94.3413 26.0661C94.3413 27.2061 93.5672 29.6036 92.0228 33.2586L91.6509 34.1411L91.4309 34.6789C89.8827 38.3832 89.1124 40.5724 89.1124 41.2541C89.1124 41.8791 89.3249 42.3373 89.7461 42.6252C90.171 42.9131 90.8579 43.0721 91.8179 43.1024L91.2791 44.9508H90.8655C89.0441 44.9508 87.7159 44.6515 86.8811 44.0493C86.0463 43.4471 85.6327 42.5002 85.6327 41.2049C85.6327 40.0648 86.5472 37.3681 88.38 33.1147C88.767 32.2246 89.0668 31.5353 89.2793 31.0467L89.4159 30.7285C90.2242 28.8196 90.6302 27.6417 90.6302 27.2023C90.6302 27.0016 90.5657 26.8274 90.4367 26.6834C90.3077 26.5395 90.1559 26.4713 89.9813 26.4713C89.2717 26.4713 87.9588 27.6265 86.0387 29.9369C84.1186 32.2473 82.3921 34.9516 80.8553 38.0461C80.3658 39.0005 79.899 39.9815 79.4551 40.989C79.0111 41.9965 78.5861 43.0191 78.1915 44.0569C78.0359 44.4697 77.8386 44.7311 77.6033 44.8409C77.368 44.9508 76.9886 45.0076 76.4649 45.0076C75.6719 45.0076 75.0875 44.9394 74.7118 44.8068C74.3324 44.6743 74.1464 44.4697 74.1464 44.1932C74.1464 44.038 74.4879 43.2047 75.1672 41.6973C75.7022 40.4928 76.1424 39.4929 76.4915 38.6937C77.7817 35.7357 78.7872 33.2775 79.5082 31.3194C80.2292 29.3612 80.5935 28.1227 80.5935 27.6C80.5935 27.3159 80.51 27.0773 80.3468 26.8917C80.1798 26.7024 79.9749 26.6077 79.7245 26.6077C78.8404 26.6077 77.6185 27.6341 76.0513 29.6869C74.4841 31.7398 72.9663 34.3646 71.494 37.5613C70.94 38.7657 70.3898 40.1065 69.8358 41.5836C69.2817 43.0646 68.9668 43.894 68.8833 44.0796C68.6974 44.5038 68.5 44.7614 68.2913 44.8599C68.0788 44.9545 67.6576 45.0038 67.0202 45.0038C66.3827 45.0038 65.859 44.9356 65.5023 44.7993C65.1418 44.6629 64.9635 44.4697 64.9635 44.2198C64.9635 43.9698 65.305 43.0191 65.9842 41.3943C66.6635 39.7694 67.2289 38.368 67.669 37.1901C68.3976 35.3077 68.9744 33.5275 69.4032 31.8572C69.832 30.1869 70.0445 28.9635 70.0445 28.1909C70.0445 27.5583 69.8889 27.0698 69.5815 26.7213C69.2741 26.3766 68.834 26.2062 68.261 26.2062C67.3047 26.2062 66.4813 26.691 65.7907 27.6606C65.1001 28.6302 64.7548 29.7854 64.7548 31.1262C64.7548 31.6943 64.8496 32.217 65.0394 32.6905C65.2291 33.1639 65.4833 33.5162 65.8059 33.7434L65.8097 33.7396Z" fill="black"/>
<path d="M103.255 39.955C102.268 41.701 101.293 42.9774 100.329 43.788C99.3652 44.5985 98.3255 45 97.2213 45C96.6976 45 96.2385 44.928 95.8476 44.7803C95.4568 44.6326 95.1494 44.4167 94.9293 44.1326C94.4702 44.3826 93.9427 44.572 93.3546 44.7046C92.7664 44.8371 92.0758 44.9167 91.2827 44.947L91.8367 43.0873C92.3414 43.0608 92.7968 42.9964 93.1952 42.8941C93.5936 42.7919 93.9579 42.6517 94.2805 42.4661C94.2425 42.273 94.2159 42.0722 94.197 41.8677C94.178 41.6632 94.1704 41.4397 94.1704 41.2011C94.1704 40.4398 94.3374 39.6065 94.6675 38.7013C94.9976 37.7961 95.4644 36.906 96.0601 36.0349C96.9822 34.713 97.9992 33.7017 99.1186 33.0086C100.238 32.3155 101.395 31.9671 102.591 31.9671C103.19 31.9671 103.706 32.0542 104.139 32.2284C104.571 32.4026 104.981 32.6829 105.368 33.0692L105.562 32.4481C105.683 32.0693 105.801 31.8345 105.922 31.7322C106.044 31.63 106.218 31.5807 106.446 31.5807C107.08 31.5807 107.634 31.6906 108.108 31.9064C108.582 32.1223 108.818 32.3761 108.818 32.6715C108.818 32.7624 108.62 33.1942 108.222 33.9669C107.827 34.7395 107.478 35.4743 107.175 36.1712C106.567 37.5575 106.108 38.7468 105.801 39.7353C105.494 40.7239 105.338 41.4852 105.338 42.0154C105.338 42.3828 105.452 42.6366 105.683 42.7805C105.915 42.9244 106.438 43.0305 107.258 43.1062L106.719 44.9545H106.469C105.023 44.9545 104.006 44.803 103.418 44.5C102.83 44.197 102.534 43.6819 102.534 42.9547C102.534 42.6328 102.591 42.2389 102.701 41.7692C102.811 41.2996 102.997 40.6973 103.255 39.9626V39.955ZM104.663 34.732C104.416 34.5388 104.169 34.3949 103.923 34.304C103.68 34.2131 103.433 34.1676 103.183 34.1676C102.64 34.1676 102.014 34.4024 101.312 34.8721C100.606 35.3418 99.9344 35.9781 99.2893 36.7886C98.7012 37.531 98.2344 38.3188 97.8891 39.152C97.5438 39.9853 97.3731 40.7125 97.3731 41.3374C97.3731 41.7882 97.4527 42.1215 97.6083 42.3373C97.7639 42.5532 98.003 42.6593 98.3255 42.6593C99.2286 42.6593 100.219 41.9889 101.293 40.6481C102.371 39.3073 103.494 37.3378 104.663 34.7357V34.732Z" fill="black"/>
<path d="M106.693 44.9432L107.232 43.0835C108.374 42.8903 109.417 42.1177 110.366 40.7617C111.315 39.4058 112.411 37.0461 113.652 33.6866C113.44 33.4745 113.284 33.2397 113.182 32.9821C113.079 32.7246 113.03 32.4291 113.03 32.0996C113.03 31.4368 113.212 30.8876 113.576 30.452C113.941 30.0165 114.4 29.7968 114.95 29.7968C115.455 29.7968 115.857 29.9331 116.153 30.2096C116.449 30.4861 116.593 30.8535 116.593 31.3118C116.593 31.5315 116.57 31.736 116.525 31.9254C116.479 32.1148 116.403 32.3041 116.305 32.4973C116.775 32.7927 117.382 33.145 118.126 33.5578C119.481 34.285 120.156 35.0047 120.156 35.7205C120.156 36.3265 119.788 37.3984 119.052 38.9323C118.316 40.4663 117.948 41.5079 117.948 42.0609C117.948 42.3904 118.073 42.6252 118.327 42.7578C118.581 42.8903 119.238 43.004 120.297 43.0949L119.758 44.9432H119.344C117.686 44.9432 116.494 44.7538 115.77 44.3713C115.041 43.9887 114.677 43.3713 114.677 42.5192C114.677 41.7579 115.026 40.6254 115.72 39.1217C116.415 37.6181 116.764 36.656 116.764 36.2356C116.764 36.0349 116.642 35.8266 116.403 35.6069C116.164 35.391 115.758 35.1183 115.189 34.785C113.956 38.3415 112.685 40.8981 111.372 42.4548C110.059 44.0114 108.503 44.8409 106.697 44.9432H106.693Z" fill="black"/>
<path d="M119.784 44.9432L120.308 43.0835C121.237 43.0267 122.019 42.6214 122.657 41.8563C123.29 41.095 123.894 39.811 124.467 38.012L127.863 27.1114C127.973 26.7516 128.106 26.2895 128.265 25.7214C128.626 24.3692 129.396 23.695 130.584 23.695C131.126 23.695 131.54 23.7708 131.821 23.9223C132.101 24.0738 132.242 24.301 132.242 24.604C132.242 24.8048 132.09 25.2896 131.786 26.0509C131.566 26.6039 131.392 27.047 131.263 27.3879L127.605 37.6408C127.825 37.5499 128.045 37.4779 128.269 37.4287C128.489 37.3794 128.717 37.3529 128.944 37.3529C129.1 37.3529 129.373 37.3719 129.76 37.4097C129.817 37.4097 129.863 37.4135 129.897 37.4249C130.291 37.012 130.625 36.5462 130.891 36.0273C131.157 35.5084 131.384 34.8797 131.566 34.1449C131.631 33.9063 131.695 33.5881 131.76 33.1942C131.896 32.3572 132.276 31.9405 132.891 31.9405C133.452 31.9405 133.858 32.0276 134.105 32.2019C134.352 32.3761 134.477 32.6564 134.477 33.0427C134.477 33.732 134.158 34.5729 133.524 35.5728C132.891 36.5689 132.124 37.3453 131.232 37.8945C131.619 38.1066 131.889 38.3301 132.041 38.5687C132.192 38.8073 132.268 39.1293 132.268 39.5346C132.268 39.7012 132.211 40.0497 132.101 40.5837C131.991 41.1177 131.934 41.5571 131.934 41.9056C131.934 42.3184 132.056 42.6025 132.299 42.7615C132.542 42.9168 133.08 43.0342 133.908 43.1062L133.369 44.9545C131.729 44.9545 130.576 44.7879 129.908 44.4584C129.24 44.1288 128.906 43.5607 128.906 42.7615C128.906 42.5229 128.971 42.0343 129.1 41.292C129.229 40.5534 129.324 39.9474 129.388 39.4777C129.104 39.652 128.83 39.7807 128.565 39.8641C128.303 39.9474 128.037 39.9891 127.772 39.9891C127.65 39.9891 127.517 39.9815 127.373 39.9701C127.225 39.955 127.058 39.936 126.876 39.9095C126.611 40.7466 126.337 41.6745 126.06 42.6934C125.783 43.7122 125.609 44.2955 125.537 44.4432C125.434 44.6553 125.256 44.803 124.998 44.8826C124.74 44.9659 124.307 45.0076 123.7 45.0076C123.332 45.0076 123.074 44.9735 122.926 44.9053C122.778 44.8371 122.706 44.7159 122.706 44.5417C122.706 44.4508 122.732 44.3296 122.782 44.1781C122.831 44.0266 122.915 43.8372 123.025 43.6062C122.619 44.019 122.148 44.3372 121.609 44.5644C121.07 44.7879 120.46 44.9204 119.78 44.9583L119.784 44.9432Z" fill="black"/>
<path d="M138.784 43.5683C137.892 43.9925 136.996 44.3182 136.097 44.5455C135.198 44.7765 134.294 44.9091 133.384 44.9432L133.938 43.0835C134.572 43.038 135.16 42.9509 135.699 42.8221C136.237 42.6934 136.761 42.5191 137.266 42.2995C136.917 41.8412 136.659 41.3185 136.492 40.7276C136.325 40.1406 136.245 39.4512 136.245 38.6596C136.245 36.8227 136.875 35.2243 138.131 33.8646C139.387 32.5049 140.871 31.8269 142.582 31.8269C143.538 31.8269 144.297 32.1148 144.855 32.6867C145.413 33.2586 145.69 34.0426 145.69 35.035C145.69 36.1182 145.291 37.3151 144.494 38.6255C143.698 39.936 142.639 41.0912 141.311 42.0912C141.698 42.451 142.119 42.7047 142.574 42.8562C143.03 43.0077 143.587 43.0835 144.252 43.0835H144.445L143.906 44.9432H143.534C142.502 44.9432 141.595 44.8295 140.814 44.6061C140.032 44.3826 139.353 44.0342 138.784 43.5645V43.5683ZM140.206 40.6595C141.163 40.0345 141.971 39.1899 142.624 38.1294C143.276 37.0689 143.603 36.1409 143.603 35.3531C143.603 34.9592 143.508 34.6562 143.314 34.4517C143.121 34.2471 142.84 34.1411 142.472 34.1411C141.709 34.1411 141.03 34.588 140.442 35.4857C139.854 36.3833 139.558 37.4211 139.558 38.6066C139.558 39.0573 139.607 39.4437 139.709 39.7694C139.812 40.0951 139.975 40.3905 140.206 40.6595Z" fill="black"/>
<path d="M143.906 44.9432L144.43 43.0835C145.462 42.9812 146.263 42.6366 146.839 42.0419C147.416 41.4473 147.925 40.3678 148.365 38.796L149.526 34.7016H148.187C147.985 34.7016 147.845 34.6751 147.773 34.6259C147.701 34.5767 147.663 34.4858 147.663 34.357C147.663 34.338 147.663 34.3153 147.671 34.2888C147.674 34.2623 147.689 34.2055 147.72 34.1221L147.94 33.4593C147.997 33.2851 148.088 33.1639 148.225 33.0995C148.357 33.0351 148.623 33.0048 149.018 33.0048H150.038L151.393 28.5393C151.465 28.3007 151.552 27.9712 151.655 27.547C151.939 26.3539 152.512 25.7555 153.366 25.7555C153.973 25.7555 154.448 25.8312 154.789 25.9827C155.131 26.1342 155.301 26.3463 155.301 26.6228C155.301 26.8084 155.195 27.1606 154.983 27.6833C154.873 27.9598 154.789 28.1795 154.732 28.3461L153.146 33.0048H155.465C155.639 33.0048 155.772 33.0313 155.867 33.0806C155.958 33.1298 156.003 33.2131 156.003 33.323C156.003 33.3684 156.003 33.4101 155.996 33.448C155.992 33.4858 155.984 33.5199 155.977 33.5578L155.742 34.2206C155.685 34.3949 155.586 34.5198 155.438 34.5918C155.29 34.6638 155.032 34.7016 154.664 34.7016H152.634L151.279 39.152C151.124 39.6482 151.006 40.0762 150.934 40.4398C150.862 40.8034 150.824 41.0988 150.824 41.3298C150.824 41.8525 151.07 42.2616 151.568 42.557C152.065 42.8524 152.805 43.0267 153.791 43.0797L153.252 44.9394H152.922C151.697 44.9394 150.672 44.7955 149.845 44.5038C149.018 44.216 148.418 43.7955 148.05 43.2426C147.462 43.7463 146.809 44.1478 146.096 44.4432C145.382 44.7386 144.654 44.9015 143.906 44.9394V44.9432Z" fill="black"/>
<path d="M108.48 20.1083L104.071 20.9491L101.752 8.52216L101.676 8.49943C101.426 9.07135 100.88 10.3591 100.03 12.3703C99.1795 14.3815 98.3219 16.5177 97.4568 18.7826H94.0189C93.1613 16.5215 92.2923 14.3588 91.4082 12.2946C90.524 10.2303 89.9852 8.96909 89.7917 8.51079H89.7196C89.6285 8.95015 89.3211 10.4538 88.7975 13.018C88.2738 15.5821 87.7767 18.2221 87.2986 20.9339L83.0259 20.1196C83.9935 15.8208 84.8245 11.9347 85.5189 8.46913C86.2133 4.99974 86.6156 2.99992 86.7256 2.46587L91.1577 1.99622C91.2867 2.35603 91.799 3.66274 92.6907 5.9239C93.5825 8.18506 94.6222 10.7644 95.8099 13.6694H95.92C96.8686 11.3628 97.8742 8.89334 98.9443 6.25342C100.011 3.61729 100.587 2.19696 100.671 1.99622L105.186 2.38255C105.232 2.69691 105.566 4.56796 106.188 7.99948C106.81 11.431 107.569 15.4685 108.473 20.1083H108.48Z" fill="black"/>
<path d="M125.142 13.6884C125.142 14.7527 124.941 15.7715 124.535 16.7411C124.129 17.7107 123.526 18.5591 122.725 19.2826C122.053 19.8886 121.291 20.3431 120.433 20.6385C119.575 20.9377 118.642 21.0854 117.629 21.0854C116.616 21.0854 115.712 20.9339 114.84 20.6385C113.967 20.3393 113.193 19.8924 112.521 19.2939C111.747 18.6046 111.151 17.7675 110.734 16.7866C110.317 15.8056 110.104 14.7602 110.104 13.6581C110.104 12.5559 110.282 11.5901 110.643 10.7038C111.003 9.81748 111.557 9.01074 112.312 8.28353C112.992 7.62071 113.789 7.12075 114.695 6.77987C115.602 6.43899 116.574 6.26855 117.617 6.26855C118.661 6.26855 119.628 6.42384 120.501 6.73821C121.374 7.05258 122.163 7.53359 122.861 8.18505C123.624 8.91226 124.197 9.73037 124.573 10.647C124.949 11.5598 125.138 12.5748 125.138 13.6846L125.142 13.6884ZM120.93 13.7452C120.93 13.0937 120.831 12.446 120.634 11.8022C120.437 11.1583 120.118 10.6204 119.674 10.1887C119.416 9.93111 119.109 9.73795 118.748 9.60159C118.388 9.46903 118.016 9.40085 117.629 9.40085C117.17 9.40085 116.771 9.47282 116.433 9.61296C116.096 9.7531 115.773 9.99171 115.462 10.3212C115.094 10.6962 114.809 11.1924 114.612 11.8097C114.415 12.4271 114.316 13.0407 114.316 13.6581C114.316 14.3739 114.415 15.0329 114.612 15.6352C114.809 16.2374 115.143 16.7601 115.614 17.1994C115.872 17.457 116.175 17.6463 116.524 17.7713C116.874 17.8963 117.242 17.9569 117.629 17.9569C118.016 17.9569 118.422 17.885 118.797 17.7372C119.169 17.5895 119.492 17.3774 119.757 17.1047C120.137 16.6995 120.425 16.1995 120.626 15.6011C120.828 15.0026 120.93 14.3853 120.93 13.7414V13.7452Z" fill="black"/>
<path d="M142.032 13.6884C142.032 14.7527 141.831 15.7715 141.425 16.7411C141.019 17.7107 140.416 18.5591 139.615 19.2826C138.943 19.8886 138.181 20.3431 137.323 20.6385C136.465 20.9377 135.532 21.0854 134.519 21.0854C133.506 21.0854 132.603 20.9339 131.73 20.6385C130.857 20.3393 130.083 19.8924 129.411 19.2939C128.637 18.6046 128.041 17.7675 127.624 16.7866C127.207 15.8056 126.994 14.7602 126.994 13.6581C126.994 12.5559 127.172 11.5901 127.533 10.7038C127.893 9.81748 128.447 9.01074 129.203 8.28353C129.882 7.62071 130.679 7.12075 131.586 6.77987C132.493 6.43899 133.464 6.26855 134.507 6.26855C135.551 6.26855 136.519 6.42384 137.391 6.73821C138.264 7.05258 139.053 7.53359 139.752 8.18505C140.514 8.91226 141.087 9.73037 141.463 10.647C141.839 11.5598 142.028 12.5748 142.028 13.6846L142.032 13.6884ZM137.82 13.7452C137.82 13.0937 137.721 12.446 137.524 11.8022C137.327 11.1583 137.008 10.6204 136.564 10.1887C136.306 9.93111 135.999 9.73795 135.638 9.60159C135.278 9.46903 134.906 9.40085 134.519 9.40085C134.06 9.40085 133.661 9.47282 133.324 9.61296C132.986 9.7531 132.663 9.99171 132.352 10.3212C131.984 10.6962 131.699 11.1924 131.502 11.8097C131.305 12.4271 131.206 13.0407 131.206 13.6581C131.206 14.3739 131.305 15.0329 131.502 15.6352C131.699 16.2374 132.033 16.7601 132.504 17.1994C132.762 17.457 133.066 17.6463 133.415 17.7713C133.764 17.8963 134.132 17.9569 134.519 17.9569C134.906 17.9569 135.312 17.885 135.688 17.7372C136.059 17.5895 136.382 17.3774 136.648 17.1047C137.027 16.6995 137.315 16.1995 137.517 15.6011C137.718 15.0026 137.82 14.3853 137.82 13.7414V13.7452Z" fill="black"/>
</g>
<defs>
<clipPath id="clip0_28_1286">
<rect width="56" height="47" fill="white"/>
</clipPath>
<clipPath id="clip1_28_1286">
<rect width="94" height="43" fill="white" transform="translate(62 2)"/>
</clipPath>
</defs>
</svg>
