<svg width="56" height="47" viewBox="0 0 56 47" fill="none" xmlns="http://www.w3.org/2000/svg">
<g id="_&#208;&#161;&#208;&#187;&#208;&#190;&#208;&#185;_1" clip-path="url(#clip0_28_1287)">
<path id="Vector" d="M36.0141 5.93228C36.6063 6.39416 37.2198 6.80913 37.8758 7.16998C38.5886 7.55969 39.3404 7.85558 40.1241 8.06848C40.2836 8.11178 40.4468 8.14426 40.6099 8.16951C40.656 8.119 40.7021 8.06848 40.7482 8.01435C41.3191 7.33596 41.6985 6.51324 41.9716 5.66525C42.3333 4.54664 42.5177 3.37028 42.5248 2.19393C42.5248 1.6671 42.4964 1.09335 42.2588 0.61343C42.0638 0.22011 41.6205 -0.0757829 41.1808 0.0180367C40.5709 0.147941 40.4184 0.876847 40.1773 1.36038C39.5922 2.53312 38.617 3.49297 37.4716 4.09197C36.9822 4.34817 36.4609 4.53942 35.9893 4.82809C35.7411 4.97965 35.507 5.16729 35.312 5.3874C35.5425 5.59308 35.8156 5.77351 36.0141 5.92867V5.93228Z" fill="black"/>
<g id="Group">
<path id="Vector_2" d="M16.4398 6.41582C16.61 6.11271 16.8547 5.88177 17.1419 5.73743C19.5675 3.57958 23.0887 3.24399 25.8831 4.96161L28.0036 6.26426V8.03601C27.7058 8.03601 27.4043 7.95302 27.1384 7.79064C27.1384 7.79064 24.0639 6.10188 22.337 6.10188C17.8512 6.10188 17.7838 9.15102 17.1277 8.77213L17.0675 8.73605C16.2625 8.27056 15.9824 7.23133 16.4398 6.41221V6.41582Z" fill="black"/>
<path id="Vector_3" d="M38.8617 5.73743C39.1454 5.88177 39.3936 6.11271 39.5638 6.41582C40.0213 7.23494 39.7411 8.27417 38.9362 8.73966L38.8759 8.77574C38.2199 9.15463 38.1525 6.10549 33.6667 6.10549C31.9397 6.10549 28.8652 7.79425 28.8652 7.79425C28.5993 7.95663 28.2979 8.03962 28 8.03962V6.26788L30.1206 4.96523C32.9113 3.25121 36.4362 3.58319 38.8617 5.74104V5.73743Z" fill="black"/>
</g>
<path id="Vector_4" d="M28.6631 23.4621C28.6631 14.3111 35.9787 6.86688 44.9716 6.86688H54.6348C55.3865 6.86688 55.9965 7.48753 55.9965 8.25253C55.9965 13.9863 51.4149 18.6485 45.7801 18.6485H41.0532C40.5426 21.2321 40.3794 23.823 40.3333 26.4499C40.3546 31.6894 37.461 32.9271 35.1596 36.7845L36.0957 39.5161C36.695 41.259 36.4362 43.1245 35.3865 44.6293C34.3369 46.134 32.6915 47 30.8759 47H25.1206C23.305 47 21.6631 46.1376 20.6099 44.6293C19.5603 43.1245 19.3014 41.259 19.8972 39.5161L20.8333 36.7917C19.9574 35.3339 18.9787 34.1431 17.8511 32.8044C16.695 31.4007 15.9007 29.629 15.734 27.8031C15.6383 26.919 15.6702 26.0241 15.6312 25.14C15.539 22.9533 15.3688 20.8027 14.9397 18.6485H10.2128C4.58156 18.6485 0 13.9863 0 8.25253C0 7.48753 0.609929 6.86688 1.3617 6.86688H11.0248C20.0177 6.86688 27.3333 14.3111 27.3333 23.4621C27.3333 25.3313 27.0248 27.1752 26.422 28.9361L22.4752 40.429C22.1489 41.3744 22.1206 42.5255 22.7376 43.3519C23.4291 44.2684 25.2624 45.5242 26.3759 44.604C26.6064 44.4128 26.7518 44.0952 26.6809 43.7993C26.6241 43.5648 26.4397 43.3771 26.2376 43.2508C25.8227 42.991 25.3227 42.9297 24.8511 42.8214C24.1489 42.659 23.4965 42.2766 23.3688 41.4971C23.266 40.8801 23.6206 40.1945 24.2057 39.9924C24.8156 39.7831 25.4752 40.1007 25.9858 40.4976C26.9326 41.2301 27.734 42.2946 27.9965 43.4782C28.2589 42.2946 29.0638 41.2301 30.0071 40.4976C30.5177 40.1007 31.1809 39.7831 31.7872 39.9924C32.3723 40.1909 32.727 40.8765 32.6241 41.4971C32.4929 42.2766 31.844 42.659 31.1418 42.8214C30.6667 42.9297 30.1667 42.991 29.7553 43.2508C29.5532 43.3771 29.3688 43.5648 29.3121 43.7993C29.2411 44.0952 29.3865 44.4128 29.617 44.604C30.7305 45.5242 32.5638 44.2684 33.2553 43.3519C33.8759 42.5291 33.844 41.3744 33.5213 40.429L29.5745 28.9361C28.9681 27.1716 28.6631 25.3313 28.6596 23.4621H28.6631Z" fill="black"/>
<path id="Vector_5" d="M20.7623 33.5766C19.3367 32.5157 17.968 31.6605 17.1346 30.0908C15.8899 27.7994 16.4112 25.0282 16.5282 22.5131C16.5353 22.4301 16.5424 22.3435 16.5495 22.2605C16.7375 20.2361 17.702 18.367 19.2162 17.0427C19.9183 16.4292 20.3403 15.8771 19.5743 15.8771H10.2162C6.55306 15.8771 2.57788 12.3048 1.93604 8.76129H10.7587C18.0247 8.76129 24.8013 14.1343 25.1843 21.5171C25.28 23.325 24.4325 26.3236 23.8474 28.0268L21.702 34.273C21.3828 34.0457 21.0708 33.8147 20.7587 33.5802L20.7623 33.5766ZM46.1382 15.8735H33.6311C36.1346 11.713 40.4325 8.95976 45.3048 8.95976H53.7162C53.0566 12.8894 49.9077 15.8735 46.1382 15.8735Z" fill="white"/>
<path id="Vector_6" d="M19.9857 5.93228C19.3935 6.39416 18.7801 6.80913 18.124 7.16998C17.4113 7.55969 16.6595 7.85558 15.8758 8.06848C15.7162 8.11178 15.5531 8.14426 15.39 8.16951C15.3439 8.119 15.2978 8.06848 15.2517 8.01435C14.6808 7.33596 14.3013 6.51324 14.0283 5.66525C13.6666 4.54664 13.4822 3.37028 13.4751 2.19393C13.4751 1.6671 13.5035 1.09335 13.7411 0.61343C13.9361 0.22011 14.3794 -0.0757829 14.8191 0.0180367C15.429 0.147941 15.5815 0.876847 15.8226 1.36038C16.4077 2.53312 17.3829 3.49297 18.5283 4.09197C19.0177 4.34817 19.5389 4.53942 20.0106 4.82809C20.2588 4.97965 20.4928 5.16729 20.6879 5.3874C20.4574 5.59308 20.1843 5.77351 19.9857 5.92867V5.93228Z" fill="black"/>
<path id="Vector_7" d="M35.3438 24.505C36.2702 24.505 37.0211 23.7408 37.0211 22.7982C37.0211 21.8555 36.2702 21.0914 35.3438 21.0914C34.4175 21.0914 33.6665 21.8555 33.6665 22.7982C33.6665 23.7408 34.4175 24.505 35.3438 24.505Z" fill="white"/>
<path id="Vector_8" d="M20.6558 24.505C21.5822 24.505 22.3331 23.7408 22.3331 22.7982C22.3331 21.8555 21.5822 21.0914 20.6558 21.0914C19.7295 21.0914 18.9785 21.8555 18.9785 22.7982C18.9785 23.7408 19.7295 24.505 20.6558 24.505Z" fill="black"/>
</g>
<defs>
<clipPath id="clip0_28_1287">
<rect width="56" height="47" fill="white"/>
</clipPath>
</defs>
</svg>
