<svg width="94" height="43" viewBox="0 0 94 43" fill="none" xmlns="http://www.w3.org/2000/svg">
<g id="_&#208;&#161;&#208;&#187;&#208;&#190;&#208;&#185;_1" clip-path="url(#clip0_28_1297)">
<g id="Group">
<path id="Vector" d="M3.80967 31.7396C3.65409 32.0616 3.44539 32.304 3.17977 32.463C2.91794 32.6221 2.60678 32.7054 2.2463 32.7054C1.52911 32.7054 0.975102 32.4176 0.584258 31.8381C0.193413 31.2586 -0.00390625 30.4291 -0.00390625 29.3421C-0.00390625 27.1453 0.679123 25.2629 2.04518 23.6911C3.41124 22.1193 5.0543 21.3352 6.96679 21.3352C8.28351 21.3352 9.31185 21.661 10.0518 22.3124C10.7917 22.9639 11.1636 23.8691 11.1636 25.0281C11.1636 25.6606 11.0498 26.4901 10.8183 27.5089C10.5868 28.5278 10.2188 29.8307 9.71408 31.4101C11.7859 27.7248 13.5239 25.1493 14.9317 23.6797C16.3395 22.2102 17.7283 21.4754 19.1019 21.4754C19.9216 21.4754 20.5591 21.7329 21.0144 22.248C21.4698 22.7631 21.6974 23.4828 21.6974 24.4107C21.6974 25.5583 20.9765 27.7248 19.5307 30.9026L19.212 31.5768C21.614 27.9028 23.6327 25.2781 25.2682 23.7025C26.9036 22.1268 28.3987 21.339 29.761 21.339C30.5161 21.339 31.1346 21.5928 31.6166 22.1041C32.0985 22.6154 32.3413 23.2669 32.3413 24.0661C32.3413 25.2061 31.5672 27.6036 30.0228 31.2586L29.6509 32.1411L29.4309 32.6789C27.8827 36.3832 27.1124 38.5724 27.1124 39.2541C27.1124 39.8791 27.3249 40.3373 27.7461 40.6252C28.171 40.9131 28.8579 41.0721 29.8179 41.1024L29.2791 42.9508H28.8655C27.0441 42.9508 25.7159 42.6515 24.8811 42.0493C24.0463 41.4471 23.6327 40.5002 23.6327 39.2049C23.6327 38.0648 24.5472 35.3681 26.38 31.1147C26.767 30.2246 27.0668 29.5353 27.2793 29.0467L27.4159 28.7285C28.2242 26.8196 28.6302 25.6417 28.6302 25.2023C28.6302 25.0016 28.5657 24.8274 28.4367 24.6834C28.3077 24.5395 28.1559 24.4713 27.9813 24.4713C27.2717 24.4713 25.9588 25.6265 24.0387 27.9369C22.1186 30.2473 20.3921 32.9516 18.8553 36.0461C18.3658 37.0005 17.899 37.9815 17.4551 38.989C17.0111 39.9965 16.5861 41.0191 16.1915 42.0569C16.0359 42.4697 15.8386 42.7311 15.6033 42.8409C15.368 42.9508 14.9886 43.0076 14.4649 43.0076C13.6719 43.0076 13.0875 42.9394 12.7118 42.8068C12.3324 42.6743 12.1464 42.4697 12.1464 42.1932C12.1464 42.038 12.4879 41.2047 13.1672 39.6973C13.7022 38.4928 14.1424 37.4929 14.4915 36.6937C15.7817 33.7357 16.7872 31.2775 17.5082 29.3194C18.2292 27.3612 18.5935 26.1227 18.5935 25.6C18.5935 25.3159 18.51 25.0773 18.3468 24.8917C18.1798 24.7024 17.9749 24.6077 17.7245 24.6077C16.8404 24.6077 15.6185 25.6341 14.0513 27.6869C12.4841 29.7398 10.9663 32.3646 9.49399 35.5613C8.93998 36.7657 8.38976 38.1065 7.83575 39.5836C7.28174 41.0646 6.96679 41.894 6.8833 42.0796C6.69737 42.5038 6.50005 42.7614 6.29135 42.8599C6.07885 42.9545 5.65765 43.0038 5.02015 43.0038C4.38266 43.0038 3.859 42.9356 3.50231 42.7993C3.14182 42.6629 2.96348 42.4697 2.96348 42.2198C2.96348 41.9698 3.30499 41.0191 3.98423 39.3943C4.66346 37.7694 5.22886 36.368 5.66903 35.1901C6.39759 33.3077 6.97438 31.5275 7.40317 29.8572C7.83196 28.1869 8.04445 26.9635 8.04445 26.1909C8.04445 25.5583 7.88888 25.0698 7.58151 24.7213C7.27415 24.3766 6.83397 24.2062 6.26099 24.2062C5.30475 24.2062 4.48132 24.691 3.7907 25.6606C3.10008 26.6302 2.75477 27.7854 2.75477 29.1262C2.75477 29.6943 2.84964 30.217 3.03937 30.6905C3.2291 31.1639 3.48334 31.5162 3.80588 31.7434L3.80967 31.7396Z" fill="black"/>
<path id="Vector_2" d="M41.2547 37.955C40.2681 39.701 39.2929 40.9774 38.3291 41.788C37.3652 42.5985 36.3255 43 35.2213 43C34.6976 43 34.2385 42.928 33.8476 42.7803C33.4568 42.6326 33.1494 42.4167 32.9293 42.1326C32.4702 42.3826 31.9427 42.572 31.3546 42.7046C30.7664 42.8371 30.0758 42.9167 29.2827 42.947L29.8367 41.0873C30.3414 41.0608 30.7968 40.9964 31.1952 40.8941C31.5936 40.7919 31.9579 40.6517 32.2805 40.4661C32.2425 40.273 32.2159 40.0722 32.197 39.8677C32.178 39.6632 32.1704 39.4397 32.1704 39.2011C32.1704 38.4398 32.3374 37.6065 32.6675 36.7013C32.9976 35.7961 33.4644 34.906 34.0601 34.0349C34.9822 32.713 35.9992 31.7017 37.1186 31.0086C38.238 30.3155 39.3953 29.9671 40.5906 29.9671C41.1902 29.9671 41.7063 30.0542 42.1388 30.2284C42.5714 30.4026 42.9812 30.6829 43.3683 31.0692L43.5618 30.4481C43.6833 30.0693 43.8009 29.8345 43.9223 29.7322C44.0437 29.63 44.2183 29.5807 44.446 29.5807C45.0797 29.5807 45.6337 29.6906 46.108 29.9064C46.5823 30.1223 46.8176 30.3761 46.8176 30.6715C46.8176 30.7624 46.6203 31.1942 46.2218 31.9669C45.8272 32.7395 45.4781 33.4743 45.1745 34.1712C44.5674 35.5575 44.1082 36.7468 43.8009 37.7353C43.4935 38.7239 43.3379 39.4852 43.3379 40.0154C43.3379 40.3828 43.4518 40.6366 43.6833 40.7805C43.9147 40.9244 44.4384 41.0305 45.258 41.1062L44.7192 42.9545H44.4687C43.023 42.9545 42.006 42.803 41.4179 42.5C40.8297 42.197 40.5337 41.6819 40.5337 40.9547C40.5337 40.6328 40.5906 40.2389 40.7007 39.7692C40.8107 39.2996 40.9967 38.6973 41.2547 37.9626V37.955ZM42.6625 32.732C42.4159 32.5388 42.1692 32.3949 41.9226 32.304C41.6797 32.2131 41.433 32.1676 41.1826 32.1676C40.64 32.1676 40.0139 32.4024 39.3119 32.8721C38.6061 33.3418 37.9344 33.9781 37.2893 34.7886C36.7012 35.531 36.2344 36.3188 35.8891 37.152C35.5438 37.9853 35.3731 38.7125 35.3731 39.3374C35.3731 39.7882 35.4527 40.1215 35.6083 40.3373C35.7639 40.5532 36.003 40.6593 36.3255 40.6593C37.2286 40.6593 38.219 39.9889 39.2929 38.6481C40.3706 37.3073 41.4938 35.3378 42.6625 32.7357V32.732Z" fill="black"/>
<path id="Vector_3" d="M44.6929 42.9432L45.2317 41.0835C46.3739 40.8903 47.4174 40.1177 48.3661 38.7617C49.3147 37.4058 50.4113 35.0461 51.6522 31.6866C51.4397 31.4745 51.2841 31.2397 51.1817 30.9821C51.0792 30.7246 51.0299 30.4291 51.0299 30.0996C51.0299 29.4368 51.212 28.8876 51.5763 28.452C51.9406 28.0165 52.3997 27.7968 52.9499 27.7968C53.4546 27.7968 53.8568 27.9331 54.1528 28.2096C54.4488 28.4861 54.593 28.8535 54.593 29.3118C54.593 29.5315 54.5702 29.736 54.5247 29.9254C54.4792 30.1148 54.4033 30.3041 54.3046 30.4973C54.7751 30.7927 55.3823 31.145 56.126 31.5578C57.4807 32.285 58.1561 33.0047 58.1561 33.7205C58.1561 34.3265 57.7881 35.3984 57.0519 36.9323C56.3158 38.4663 55.9477 39.5079 55.9477 40.0609C55.9477 40.3904 56.0729 40.6252 56.3271 40.7578C56.5814 40.8903 57.2378 41.004 58.2965 41.0949L57.7577 42.9432H57.3441C55.6858 42.9432 54.4943 42.7538 53.7696 42.3713C53.041 41.9887 52.6767 41.3713 52.6767 40.5192C52.6767 39.7579 53.0258 38.6254 53.7202 37.1217C54.4147 35.6181 54.7638 34.656 54.7638 34.2356C54.7638 34.0349 54.6423 33.8266 54.4033 33.6069C54.1642 33.391 53.7582 33.1183 53.189 32.785C51.9557 36.3415 50.6846 38.8981 49.3716 40.4548C48.0587 42.0114 46.5029 42.8409 44.6967 42.9432H44.6929Z" fill="black"/>
<path id="Vector_4" d="M57.7841 42.9432L58.3077 41.0835C59.2374 41.0267 60.0191 40.6214 60.6566 39.8563C61.2903 39.095 61.8936 37.811 62.4666 36.012L65.8628 25.1114C65.9728 24.7516 66.1056 24.2895 66.265 23.7214C66.6255 22.3692 67.3958 21.695 68.5835 21.695C69.1262 21.695 69.5398 21.7708 69.8206 21.9223C70.1014 22.0738 70.2418 22.301 70.2418 22.604C70.2418 22.8048 70.09 23.2896 69.7864 24.0509C69.5663 24.6039 69.3918 25.047 69.2628 25.3879L65.6048 35.6408C65.8248 35.5499 66.0449 35.4779 66.2688 35.4287C66.4889 35.3794 66.7166 35.3529 66.9442 35.3529C67.0998 35.3529 67.373 35.3719 67.7601 35.4097C67.817 35.4097 67.8625 35.4135 67.8967 35.4249C68.2913 35.012 68.6253 34.5462 68.8909 34.0273C69.1565 33.5084 69.3842 32.8797 69.5663 32.1449C69.6308 31.9063 69.6953 31.5881 69.7598 31.1942C69.8965 30.3572 70.2759 29.9405 70.8906 29.9405C71.4522 29.9405 71.8583 30.0276 72.1049 30.2019C72.3516 30.3761 72.4768 30.6564 72.4768 31.0427C72.4768 31.732 72.158 32.5729 71.5243 33.5728C70.8906 34.5689 70.1241 35.3453 69.2324 35.8945C69.6194 36.1066 69.8889 36.3301 70.0407 36.5687C70.1924 36.8073 70.2683 37.1293 70.2683 37.5346C70.2683 37.7012 70.2114 38.0497 70.1014 38.5837C69.9913 39.1177 69.9344 39.5571 69.9344 39.9056C69.9344 40.3184 70.0558 40.6025 70.2987 40.7615C70.5415 40.9168 71.0804 41.0342 71.9076 41.1062L71.3688 42.9545C69.7295 42.9545 68.5759 42.7879 67.9081 42.4584C67.2402 42.1288 66.9063 41.5607 66.9063 40.7615C66.9063 40.5229 66.9708 40.0343 67.0998 39.292C67.2288 38.5534 67.3237 37.9474 67.3882 37.4777C67.1036 37.652 66.8304 37.7807 66.5648 37.8641C66.303 37.9474 66.0373 37.9891 65.7717 37.9891C65.6503 37.9891 65.5175 37.9815 65.3733 37.9701C65.2253 37.955 65.0583 37.936 64.8762 37.9095C64.6106 38.7466 64.3374 39.6745 64.0604 40.6934C63.7833 41.7122 63.6088 42.2955 63.5367 42.4432C63.4342 42.6553 63.2559 42.803 62.9979 42.8826C62.7398 42.9659 62.3072 43.0076 61.7001 43.0076C61.332 43.0076 61.074 42.9735 60.926 42.9053C60.778 42.8371 60.7059 42.7159 60.7059 42.5417C60.7059 42.4508 60.7325 42.3296 60.7818 42.1781C60.8311 42.0266 60.9146 41.8372 61.0247 41.6062C60.6186 42.019 60.1481 42.3372 59.6093 42.5644C59.0704 42.7879 58.4595 42.9204 57.7803 42.9583L57.7841 42.9432Z" fill="black"/>
<path id="Vector_5" d="M76.7835 41.5683C75.8918 41.9925 74.9963 42.3182 74.0969 42.5455C73.1976 42.7765 72.2945 42.9091 71.3838 42.9432L71.9378 41.0835C72.5715 41.038 73.1597 40.9509 73.6985 40.8221C74.2373 40.6934 74.761 40.5191 75.2657 40.2995C74.9166 39.8412 74.6585 39.3185 74.4916 38.7276C74.3246 38.1406 74.2449 37.4512 74.2449 36.6596C74.2449 34.8227 74.8748 33.2243 76.1308 31.8646C77.3869 30.5049 78.8705 29.8269 80.5819 29.8269C81.5382 29.8269 82.2971 30.1148 82.8549 30.6867C83.4127 31.2586 83.6897 32.0426 83.6897 33.035C83.6897 34.1182 83.2913 35.3151 82.4944 36.6255C81.6975 37.936 80.6388 39.0912 79.3107 40.0912C79.6978 40.451 80.119 40.7047 80.5743 40.8562C81.0297 41.0077 81.5875 41.0835 82.2515 41.0835H82.4451L81.9062 42.9432H81.5344C80.5022 42.9432 79.5953 42.8295 78.8136 42.6061C78.0319 42.3826 77.3527 42.0342 76.7835 41.5645V41.5683ZM78.2065 38.6595C79.1627 38.0345 79.971 37.1899 80.6237 36.1294C81.2763 35.0689 81.6027 34.1409 81.6027 33.3531C81.6027 32.9592 81.5078 32.6562 81.3143 32.4517C81.1207 32.2471 80.84 32.1411 80.4719 32.1411C79.7092 32.1411 79.0299 32.588 78.4418 33.4857C77.8536 34.3833 77.5576 35.4211 77.5576 36.6066C77.5576 37.0573 77.6069 37.4437 77.7094 37.7694C77.8119 38.0951 77.975 38.3905 78.2065 38.6595Z" fill="black"/>
<path id="Vector_6" d="M81.9062 42.9432L82.4299 41.0835C83.462 40.9812 84.2627 40.6366 84.8395 40.0419C85.4163 39.4473 85.9247 38.3678 86.3649 36.796L87.5261 32.7016H86.1866C85.9855 32.7016 85.845 32.6751 85.773 32.6259C85.7009 32.5767 85.6629 32.4858 85.6629 32.357C85.6629 32.338 85.6629 32.3153 85.6705 32.2888C85.6743 32.2623 85.6895 32.2055 85.7198 32.1221L85.9399 31.4593C85.9968 31.2851 86.0879 31.1639 86.2245 31.0995C86.3573 31.0351 86.6229 31.0048 87.0176 31.0048H88.0383L89.393 26.5393C89.4651 26.3007 89.5524 25.9712 89.6548 25.547C89.9394 24.3539 90.5124 23.7555 91.3662 23.7555C91.9733 23.7555 92.4477 23.8312 92.7892 23.9827C93.1307 24.1342 93.3015 24.3463 93.3015 24.6228C93.3015 24.8084 93.1952 25.1606 92.9827 25.6833C92.8727 25.9598 92.7892 26.1795 92.7323 26.3461L91.1461 31.0048H93.4646C93.6392 31.0048 93.772 31.0313 93.8668 31.0806C93.9579 31.1298 94.0035 31.2131 94.0035 31.323C94.0035 31.3684 94.0035 31.4101 93.9959 31.448C93.9921 31.4858 93.9845 31.5199 93.9769 31.5578L93.7416 32.2206C93.6847 32.3949 93.5861 32.5198 93.4381 32.5918C93.2901 32.6638 93.032 32.7016 92.664 32.7016H90.6338L89.2792 37.152C89.1236 37.6482 89.006 38.0762 88.9339 38.4398C88.8618 38.8034 88.8238 39.0988 88.8238 39.3298C88.8238 39.8525 89.0705 40.2616 89.5676 40.557C90.0647 40.8524 90.8046 41.0267 91.7912 41.0797L91.2524 42.9394H90.9222C89.6966 42.9394 88.672 42.7955 87.8448 42.5038C87.0176 42.216 86.418 41.7955 86.05 41.2426C85.4618 41.7463 84.8091 42.1478 84.0957 42.4432C83.3823 42.7386 82.6538 42.9015 81.9062 42.9394V42.9432Z" fill="black"/>
</g>
<g id="Group_2">
<path id="Vector_7" d="M46.4801 18.1083L42.0708 18.9491L39.7523 6.52216L39.6764 6.49943C39.4259 7.07135 38.8795 8.35912 38.0295 10.3703C37.1795 12.3815 36.3219 14.5177 35.4568 16.7826H32.0189C31.1613 14.5215 30.2923 12.3588 29.4082 10.2946C28.524 8.23034 27.9852 6.96909 27.7917 6.51079H27.7196C27.6285 6.95015 27.3211 8.4538 26.7975 11.018C26.2738 13.5821 25.7767 16.2221 25.2986 18.9339L21.0259 18.1196C21.9935 13.8208 22.8245 9.93473 23.5189 6.46913C24.2133 2.99974 24.6156 0.999915 24.7256 0.465871L29.1577 -0.00378418C29.2867 0.356033 29.799 1.66274 30.6907 3.9239C31.5825 6.18506 32.6222 8.76438 33.8099 11.6694H33.92C34.8686 9.36281 35.8742 6.89334 36.9443 4.25342C38.0105 1.61729 38.5873 0.196956 38.6708 -0.00378418L43.1864 0.382545C43.2319 0.696912 43.5658 2.56796 44.1882 5.99948C44.8105 9.43099 45.5694 13.4685 46.4725 18.1083H46.4801Z" fill="black"/>
<path id="Vector_8" d="M63.142 11.6884C63.142 12.7527 62.9409 13.7715 62.5349 14.7411C62.1289 15.7107 61.5255 16.5591 60.7249 17.2826C60.0532 17.8886 59.2905 18.3431 58.4329 18.6385C57.5753 18.9377 56.6419 19.0854 55.6287 19.0854C54.6156 19.0854 53.7124 18.9339 52.8397 18.6385C51.9669 18.3393 51.1928 17.8924 50.5212 17.2939C49.7471 16.6046 49.1513 15.7675 48.7339 14.7866C48.3165 13.8056 48.104 12.7602 48.104 11.6581C48.104 10.5559 48.2824 9.59005 48.6428 8.70377C49.0033 7.81748 49.5573 7.01074 50.3125 6.28353C50.9917 5.62071 51.7886 5.12075 52.6955 4.77987C53.6024 4.43899 54.5738 4.26855 55.6173 4.26855C56.6608 4.26855 57.6285 4.42384 58.5012 4.73821C59.374 5.05258 60.1633 5.53359 60.8615 6.18505C61.6242 6.91226 62.1972 7.73037 62.5728 8.64696C62.9485 9.55975 63.1382 10.5748 63.1382 11.6846L63.142 11.6884ZM58.93 11.7452C58.93 11.0937 58.8314 10.446 58.634 9.80216C58.4367 9.15827 58.118 8.62044 57.674 8.18866C57.416 7.93111 57.1086 7.73795 56.7481 7.60159C56.3876 7.46903 56.0158 7.40085 55.6287 7.40085C55.1696 7.40085 54.7711 7.47282 54.4334 7.61296C54.0957 7.7531 53.7731 7.99171 53.462 8.32123C53.0939 8.69619 52.8093 9.19236 52.612 9.80973C52.4147 10.4271 52.316 11.0407 52.316 11.6581C52.316 12.3739 52.4147 13.0329 52.612 13.6352C52.8093 14.2374 53.1432 14.7601 53.6138 15.1994C53.8718 15.457 54.1754 15.6463 54.5245 15.7713C54.8736 15.8963 55.2417 15.9569 55.6287 15.9569C56.0158 15.9569 56.4218 15.885 56.7974 15.7372C57.1693 15.5895 57.4919 15.3774 57.7575 15.1047C58.1369 14.6995 58.4253 14.1995 58.6265 13.6011C58.8276 13.0026 58.93 12.3853 58.93 11.7414V11.7452Z" fill="black"/>
<path id="Vector_9" d="M80.0322 11.6884C80.0322 12.7527 79.831 13.7715 79.425 14.7411C79.019 15.7107 78.4157 16.5591 77.615 17.2826C76.9434 17.8886 76.1806 18.3431 75.3231 18.6385C74.4655 18.9377 73.532 19.0854 72.5188 19.0854C71.5057 19.0854 70.6026 18.9339 69.7298 18.6385C68.857 18.3393 68.0829 17.8924 67.4113 17.2939C66.6372 16.6046 66.0415 15.7675 65.624 14.7866C65.2066 13.8056 64.9941 12.7602 64.9941 11.6581C64.9941 10.5559 65.1725 9.59005 65.533 8.70377C65.8935 7.81748 66.4475 7.01074 67.2026 6.28353C67.8818 5.62071 68.6787 5.12075 69.5856 4.77987C70.4925 4.43899 71.4639 4.26855 72.5075 4.26855C73.551 4.26855 74.5186 4.42384 75.3914 4.73821C76.2641 5.05258 77.0534 5.53359 77.7516 6.18505C78.5143 6.91226 79.0873 7.73037 79.463 8.64696C79.8386 9.55975 80.0284 10.5748 80.0284 11.6846L80.0322 11.6884ZM75.8202 11.7452C75.8202 11.0937 75.7215 10.446 75.5242 9.80216C75.3269 9.15827 75.0081 8.62044 74.5641 8.18866C74.3061 7.93111 73.9987 7.73795 73.6383 7.60159C73.2778 7.46903 72.9059 7.40085 72.5188 7.40085C72.0597 7.40085 71.6613 7.47282 71.3235 7.61296C70.9858 7.7531 70.6633 7.99171 70.3521 8.32123C69.984 8.69619 69.6995 9.19236 69.5021 9.80973C69.3048 10.4271 69.2062 11.0407 69.2062 11.6581C69.2062 12.3739 69.3048 13.0329 69.5021 13.6352C69.6995 14.2374 70.0334 14.7601 70.5039 15.1994C70.7619 15.457 71.0655 15.6463 71.4146 15.7713C71.7637 15.8963 72.1318 15.9569 72.5188 15.9569C72.9059 15.9569 73.3119 15.885 73.6876 15.7372C74.0595 15.5895 74.382 15.3774 74.6476 15.1047C75.0271 14.6995 75.3155 14.1995 75.5166 13.6011C75.7177 13.0026 75.8202 12.3853 75.8202 11.7414V11.7452Z" fill="black"/>
</g>
</g>
<defs>
<clipPath id="clip0_28_1297">
<rect width="94" height="43" fill="white"/>
</clipPath>
</defs>
</svg>
