<svg width="230" height="71" viewBox="0 0 230 71" fill="none" xmlns="http://www.w3.org/2000/svg">
<g clip-path="url(#clip0_71_534)">
<path d="M53.0977 9.59901C53.9708 10.28 54.8753 10.8918 55.8425 11.4238C56.8934 11.9984 58.0018 12.4347 59.1572 12.7485C59.3925 12.8124 59.633 12.8603 59.8735 12.8975C59.9414 12.823 60.0094 12.7485 60.0774 12.6687C60.9191 11.6685 61.4785 10.4556 61.8811 9.20532C62.4144 7.55608 62.6862 5.82171 62.6967 4.08734C62.6967 3.3106 62.6549 2.4647 62.3046 1.75712C62.017 1.17723 61.3635 0.740975 60.7152 0.879298C59.816 1.07082 59.5911 2.14549 59.2356 2.85839C58.373 4.58744 56.9352 6.0026 55.2465 6.88574C54.525 7.26347 53.7564 7.54544 53.0611 7.97105C52.6951 8.1945 52.3501 8.47114 52.0625 8.79567C52.4023 9.09892 52.8049 9.36493 53.0977 9.59369V9.59901Z" fill="white"/>
<path d="M24.2378 10.3118C24.4888 9.86493 24.8495 9.52444 25.273 9.31163C28.8491 6.13019 34.0407 5.63541 38.1606 8.1678L41.2871 10.0884V12.7006C40.8479 12.7006 40.4035 12.5782 40.0114 12.3388C40.0114 12.3388 35.4785 9.84897 32.9324 9.84897C26.3187 9.84897 26.2193 14.3445 25.2521 13.7859L25.1632 13.7327C23.9764 13.0464 23.5634 11.5142 24.2378 10.3065V10.3118Z" fill="white"/>
<path d="M57.2958 9.31165C57.714 9.52445 58.08 9.86494 58.331 10.3118C59.0054 11.5195 58.5924 13.0517 57.4056 13.738L57.3167 13.7912C56.3495 14.3498 56.2501 9.8543 49.6364 9.8543C47.0903 9.8543 42.5574 12.3441 42.5574 12.3441C42.1653 12.5835 41.7209 12.7059 41.2817 12.7059V10.0937L44.4082 8.17314C48.5228 5.64607 53.7197 6.13552 57.2958 9.31697V9.31165Z" fill="white"/>
<path d="M42.2597 35.4443C42.2597 21.9524 53.0456 10.9769 66.3043 10.9769H80.5512C81.6596 10.9769 82.5589 11.892 82.5589 13.0199C82.5589 21.4736 75.804 28.3472 67.4964 28.3472H60.5271C59.7743 32.1564 59.5338 35.9763 59.4658 39.8494C59.4972 47.5742 55.2309 49.399 51.8378 55.0862L53.2181 59.1136C54.1017 61.6832 53.72 64.4337 52.1724 66.6522C50.6249 68.8707 48.199 70.1476 45.5221 70.1476H37.0367C34.3599 70.1476 31.9392 68.8761 30.3864 66.6522C28.8389 64.4337 28.4572 61.6832 29.3356 59.1136L30.7158 55.0969C29.4244 52.9475 27.9815 51.1919 26.3189 49.2181C24.6145 47.1486 23.4434 44.5364 23.1976 41.8444C23.0565 40.541 23.1035 39.2216 23.046 37.9181C22.9101 34.6941 22.6591 31.5233 22.0265 28.3472H15.0573C6.75486 28.3472 0 21.4736 0 13.0199C0 11.892 0.899254 10.9769 2.00764 10.9769H16.2545C29.5133 10.9769 40.2991 21.9524 40.2991 35.4443C40.2991 38.2001 39.8443 40.9187 38.9555 43.5149L33.1365 60.4596C32.6555 61.8535 32.6137 63.5506 33.5234 64.7689C34.5429 66.1202 37.2459 67.9716 38.8875 66.615C39.2274 66.333 39.4417 65.8649 39.3372 65.4286C39.2535 65.0828 38.9816 64.8061 38.6836 64.6199C38.0719 64.2369 37.3347 64.1465 36.6394 63.9868C35.6042 63.7474 34.6422 63.1835 34.454 62.0344C34.3024 61.1246 34.8252 60.1138 35.6879 59.8159C36.5871 59.5073 37.5596 59.9755 38.3124 60.5607C39.7084 61.6407 40.8899 63.2101 41.2768 64.9551C41.6637 63.2101 42.8505 61.6407 44.2412 60.5607C44.9941 59.9755 45.9718 59.5073 46.8658 59.8159C47.7285 60.1085 48.2513 61.1193 48.0997 62.0344C47.9062 63.1835 46.9494 63.7474 45.9143 63.9868C45.2137 64.1465 44.4765 64.2369 43.87 64.6199C43.572 64.8061 43.3001 65.0828 43.2165 65.4286C43.1119 65.8649 43.3263 66.333 43.6661 66.615C45.3078 67.9716 48.0108 66.1202 49.0303 64.7689C49.9452 63.5559 49.8982 61.8535 49.4224 60.4596L43.6034 43.5149C42.7094 40.9134 42.2597 38.2001 42.2545 35.4443H42.2597Z" fill="white"/>
<path d="M30.6111 50.3567C28.5094 48.7925 26.4913 47.5317 25.2627 45.2174C23.4276 41.8391 24.1961 37.7532 24.3686 34.0451C24.3791 33.9227 24.3895 33.795 24.4 33.6727C24.6771 30.6881 26.0992 27.9322 28.3316 25.9797C29.3668 25.0753 29.989 24.2613 28.8597 24.2613H15.0624C9.66164 24.2613 3.8008 18.9944 2.85449 13.77H15.8623C26.5749 13.77 36.5661 21.6917 37.1307 32.5767C37.2719 35.2421 36.0223 39.6632 35.1597 42.1743L31.9966 51.3834C31.5261 51.0483 31.066 50.7078 30.6059 50.362L30.6111 50.3567ZM68.0243 24.256H49.5844C53.2755 18.1219 59.6121 14.0626 66.7957 14.0626H79.197C78.2246 19.8563 73.5819 24.256 68.0243 24.256Z" fill="black"/>
<path d="M29.4662 9.59901C28.5931 10.28 27.6886 10.8918 26.7214 11.4238C25.6705 11.9984 24.5621 12.4347 23.4067 12.7485C23.1714 12.8124 22.9309 12.8603 22.6904 12.8975C22.6225 12.823 22.5545 12.7485 22.4865 12.6687C21.6448 11.6685 21.0854 10.4556 20.6828 9.20532C20.1495 7.55608 19.8776 5.82171 19.8672 4.08734C19.8672 3.3106 19.909 2.4647 20.2593 1.75712C20.5469 1.17723 21.2004 0.740975 21.8487 0.879298C22.7479 1.07082 22.9728 2.14549 23.3283 2.85839C24.1909 4.58744 25.6287 6.0026 27.3174 6.88574C28.0389 7.26347 28.8075 7.54544 29.5028 7.97105C29.8688 8.1945 30.2138 8.47114 30.5014 8.79567C30.1616 9.09892 29.759 9.36493 29.4662 9.59369V9.59901Z" fill="white"/>
<path d="M52.1097 36.9817C53.4754 36.9817 54.5826 35.8551 54.5826 34.4653C54.5826 33.0755 53.4754 31.9489 52.1097 31.9489C50.7439 31.9489 49.6367 33.0755 49.6367 34.4653C49.6367 35.8551 50.7439 36.9817 52.1097 36.9817Z" fill="black"/>
<path d="M30.4544 36.9817C31.8202 36.9817 32.9273 35.8551 32.9273 34.4653C32.9273 33.0755 31.8202 31.9489 30.4544 31.9489C29.0886 31.9489 27.9814 33.0755 27.9814 34.4653C27.9814 35.8551 29.0886 36.9817 30.4544 36.9817Z" fill="white"/>
</g>
<g clip-path="url(#clip1_71_534)">
<path d="M97.0274 50.597C96.798 51.0717 96.4903 51.429 96.0987 51.6636C95.7126 51.8981 95.2539 52.021 94.7224 52.021C93.665 52.021 92.8482 51.5966 92.272 50.7422C91.6957 49.8878 91.4048 48.6649 91.4048 47.0622C91.4048 43.8234 92.4118 41.048 94.4259 38.7306C96.4399 36.4131 98.8624 35.2572 101.682 35.2572C103.623 35.2572 105.14 35.7374 106.231 36.6979C107.321 37.6584 107.87 38.993 107.87 40.7018C107.87 41.6344 107.702 42.8573 107.361 44.3594C107.019 45.8616 106.477 47.7826 105.733 50.1112C108.787 44.6777 111.35 40.8805 113.425 38.7138C115.501 36.5472 117.548 35.4638 119.574 35.4638C120.782 35.4638 121.722 35.8435 122.393 36.603C123.065 37.3624 123.4 38.4234 123.4 39.7916C123.4 41.4836 122.337 44.6777 120.206 49.3629L119.736 50.3569C123.277 44.9402 126.254 41.0704 128.665 38.7473C131.076 36.4243 133.28 35.2628 135.289 35.2628C136.402 35.2628 137.314 35.6369 138.025 36.3908C138.735 37.1447 139.093 38.1051 139.093 39.2834C139.093 40.9643 137.952 44.4991 135.675 49.8878L135.127 51.1889L134.802 51.9819C132.52 57.4432 131.384 60.6709 131.384 61.6761C131.384 62.5975 131.697 63.2731 132.318 63.6975C132.945 64.1219 133.957 64.3565 135.373 64.4011L134.578 67.1262H133.969C131.283 67.1262 129.325 66.6851 128.094 65.7972C126.863 64.9093 126.254 63.5133 126.254 61.6035C126.254 59.9226 127.602 55.9467 130.304 49.6756C130.875 48.3633 131.317 47.347 131.63 46.6266L131.831 46.1576C133.023 43.3431 133.622 41.6064 133.622 40.9587C133.622 40.6627 133.527 40.4058 133.336 40.1936C133.146 39.9814 132.922 39.8809 132.665 39.8809C131.619 39.8809 129.683 41.5841 126.852 44.9905C124.021 48.3968 121.476 52.3839 119.21 56.9462C118.488 58.3535 117.8 59.7998 117.146 61.2852C116.491 62.7706 115.864 64.2783 115.283 65.8084C115.053 66.417 114.762 66.8024 114.415 66.9643C114.069 67.1262 113.509 67.21 112.737 67.21C111.568 67.21 110.706 67.1095 110.152 66.914C109.593 66.7186 109.319 66.417 109.319 66.0094C109.319 65.7804 109.822 64.5519 110.824 62.3294C111.613 60.5536 112.262 59.0794 112.776 57.9011C114.678 53.5399 116.161 49.9157 117.224 47.0287C118.287 44.1417 118.824 42.3156 118.824 41.545C118.824 41.1262 118.701 40.7744 118.46 40.5008C118.214 40.2216 117.912 40.082 117.543 40.082C116.239 40.082 114.438 41.5953 112.127 44.6219C109.817 47.6485 107.579 51.5184 105.408 56.2315C104.591 58.0072 103.78 59.984 102.963 62.1619C102.146 64.3453 101.682 65.5682 101.559 65.8419C101.285 66.4673 100.994 66.847 100.686 66.9922C100.373 67.1318 99.7519 67.2044 98.8121 67.2044C97.8722 67.2044 97.1001 67.1039 96.5742 66.9029C96.0427 66.7018 95.7798 66.417 95.7798 66.0485C95.7798 65.6799 96.2833 64.2783 97.2847 61.8827C98.2862 59.4871 99.1198 57.4209 99.7687 55.6842C100.843 52.9089 101.693 50.2843 102.325 47.8217C102.958 45.359 103.271 43.5553 103.271 42.4161C103.271 41.4836 103.042 40.7632 102.588 40.2495C102.135 39.7413 101.486 39.49 100.641 39.49C99.2316 39.49 98.0176 40.2048 96.9994 41.6344C95.9812 43.0639 95.4721 44.7671 95.4721 46.7439C95.4721 47.5815 95.6119 48.3522 95.8917 49.0502C96.1714 49.7482 96.5462 50.2675 97.0218 50.6026L97.0274 50.597Z" fill="white"/>
<path d="M152.235 59.7607C150.78 62.335 149.343 64.2169 147.922 65.4119C146.501 66.607 144.968 67.1989 143.34 67.1989C142.567 67.1989 141.891 67.0928 141.314 66.875C140.738 66.6572 140.285 66.3389 139.96 65.9201C139.283 66.2887 138.506 66.5679 137.639 66.7633C136.771 66.9588 135.753 67.076 134.584 67.1207L135.401 64.3789C136.145 64.3398 136.816 64.2448 137.404 64.0941C137.991 63.9433 138.528 63.7367 139.004 63.4631C138.948 63.1783 138.909 62.8823 138.881 62.5808C138.853 62.2792 138.841 61.9497 138.841 61.5979C138.841 60.4755 139.088 59.247 139.574 57.9124C140.061 56.5777 140.749 55.2655 141.628 53.9811C142.987 52.0322 144.486 50.5412 146.137 49.5193C147.787 48.4974 149.494 47.9837 151.256 47.9837C152.14 47.9837 152.901 48.1121 153.539 48.369C154.176 48.6258 154.781 49.0391 155.351 49.6087L155.637 48.6928C155.816 48.1344 155.989 47.7882 156.168 47.6374C156.347 47.4867 156.604 47.4141 156.94 47.4141C157.874 47.4141 158.691 47.576 159.391 47.8943C160.09 48.2126 160.437 48.5867 160.437 49.0223C160.437 49.1563 160.146 49.7929 159.558 50.9321C158.976 52.0713 158.462 53.1546 158.014 54.1821C157.119 56.2259 156.442 57.9794 155.989 59.4368C155.536 60.8943 155.306 62.0168 155.306 62.7985C155.306 63.3402 155.474 63.7143 155.816 63.9265C156.157 64.1387 156.929 64.2951 158.137 64.4068L157.343 67.1319H156.974C154.842 67.1319 153.343 66.9085 152.476 66.4618C151.608 66.015 151.172 65.2556 151.172 64.1834C151.172 63.7088 151.256 63.128 151.418 62.4356C151.58 61.7431 151.855 60.8552 152.235 59.7719V59.7607ZM154.311 52.0601C153.947 51.7753 153.583 51.5631 153.22 51.4291C152.862 51.2951 152.498 51.2281 152.129 51.2281C151.329 51.2281 150.406 51.5743 149.371 52.2667C148.33 52.9592 147.34 53.8973 146.389 55.0923C145.521 56.1868 144.833 57.3484 144.324 58.5769C143.815 59.8054 143.563 60.8776 143.563 61.799C143.563 62.4635 143.681 62.9549 143.91 63.2732C144.14 63.5915 144.492 63.7479 144.968 63.7479C146.299 63.7479 147.759 62.7594 149.343 60.7826C150.931 58.8058 152.587 55.902 154.311 52.0657V52.0601Z" fill="white"/>
<path d="M157.304 67.1152L158.098 64.3733C159.782 64.0885 161.321 62.9493 162.719 60.9502C164.118 58.9511 165.735 55.4721 167.564 50.5189C167.251 50.2062 167.022 49.86 166.871 49.4803C166.719 49.1005 166.647 48.665 166.647 48.1791C166.647 47.2019 166.915 46.3922 167.452 45.75C167.989 45.1078 168.666 44.7839 169.478 44.7839C170.222 44.7839 170.815 44.985 171.251 45.3926C171.687 45.8003 171.9 46.3419 171.9 47.0176C171.9 47.3415 171.866 47.643 171.799 47.9223C171.732 48.2015 171.62 48.4807 171.475 48.7655C172.169 49.201 173.064 49.7204 174.16 50.329C176.158 51.4012 177.153 52.4622 177.153 53.5176C177.153 54.4111 176.611 55.9914 175.525 58.253C174.44 60.5146 173.897 62.0503 173.897 62.8656C173.897 63.3514 174.082 63.6976 174.457 63.8931C174.832 64.0885 175.8 64.256 177.36 64.3901L176.566 67.1152H175.956C173.511 67.1152 171.755 66.836 170.686 66.2719C169.612 65.7079 169.075 64.7977 169.075 63.5413C169.075 62.4188 169.589 60.7492 170.613 58.5322C171.637 56.3153 172.152 54.8969 172.152 54.2771C172.152 53.9811 171.973 53.674 171.62 53.3501C171.268 53.0318 170.669 52.6297 169.83 52.1383C168.012 57.3819 166.138 61.1512 164.202 63.4463C162.266 65.7414 159.972 66.9644 157.309 67.1152H157.304Z" fill="white"/>
<path d="M176.605 67.1151L177.377 64.3732C178.748 64.2895 179.9 63.692 180.84 62.564C181.775 61.4415 182.664 59.5485 183.509 56.896L188.516 40.8247C188.678 40.2942 188.874 39.6129 189.109 38.7753C189.641 36.7817 190.776 35.7877 192.527 35.7877C193.328 35.7877 193.937 35.8994 194.351 36.1228C194.765 36.3461 194.972 36.6812 194.972 37.1279C194.972 37.4239 194.749 38.1387 194.301 39.2611C193.976 40.0764 193.719 40.7297 193.529 41.2323L188.136 56.3487C188.46 56.2147 188.785 56.1086 189.115 56.036C189.439 55.9634 189.775 55.9243 190.111 55.9243C190.34 55.9243 190.743 55.9523 191.313 56.0081C191.397 56.0081 191.464 56.0137 191.515 56.0304C192.097 55.4218 192.589 54.7349 192.981 53.9699C193.372 53.2048 193.708 52.2779 193.976 51.1945C194.072 50.8427 194.167 50.3737 194.262 49.7929C194.463 48.5588 195.023 47.9445 195.929 47.9445C196.757 47.9445 197.356 48.073 197.719 48.3298C198.083 48.5867 198.268 48.9999 198.268 49.5695C198.268 50.5859 197.798 51.8255 196.863 53.2998C195.929 54.7684 194.799 55.9132 193.484 56.7229C194.055 57.0356 194.452 57.3651 194.676 57.7169C194.9 58.0687 195.011 58.5433 195.011 59.1408C195.011 59.3866 194.928 59.9003 194.765 60.6877C194.603 61.475 194.519 62.1228 194.519 62.6366C194.519 63.2452 194.698 63.6641 195.056 63.8986C195.414 64.1275 196.209 64.3007 197.428 64.4068L196.634 67.1318C194.217 67.1318 192.516 66.8861 191.532 66.4003C190.547 65.9145 190.055 65.0769 190.055 63.8986C190.055 63.5468 190.15 62.8264 190.34 61.7319C190.53 60.643 190.67 59.7495 190.765 59.0571C190.346 59.314 189.943 59.5038 189.551 59.6267C189.165 59.7495 188.773 59.811 188.382 59.811C188.203 59.811 188.007 59.7998 187.794 59.783C187.576 59.7607 187.33 59.7328 187.062 59.6937C186.67 60.9278 186.267 62.2959 185.859 63.7981C185.45 65.3002 185.193 66.1602 185.087 66.378C184.936 66.6907 184.673 66.9085 184.292 67.0257C183.912 67.1486 183.274 67.21 182.379 67.21C181.836 67.21 181.456 67.1598 181.238 67.0592C181.019 66.9587 180.913 66.78 180.913 66.5232C180.913 66.3891 180.952 66.2104 181.025 65.9871C181.098 65.7637 181.221 65.4845 181.383 65.1439C180.784 65.7525 180.091 66.2216 179.296 66.5567C178.502 66.8861 177.601 67.0816 176.6 67.1374L176.605 67.1151Z" fill="white"/>
<path d="M204.617 65.0881C203.303 65.7136 201.982 66.1938 200.656 66.5289C199.33 66.8695 197.999 67.0649 196.656 67.1152L197.473 64.3733C198.407 64.3063 199.275 64.1779 200.069 63.988C200.863 63.7982 201.635 63.5413 202.38 63.2174C201.865 62.5417 201.484 61.7711 201.238 60.9C200.992 60.0344 200.875 59.0181 200.875 57.851C200.875 55.1427 201.803 52.7861 203.655 50.7814C205.507 48.7767 207.694 47.7771 210.218 47.7771C211.627 47.7771 212.746 48.2015 213.569 49.0447C214.391 49.8879 214.8 51.0439 214.8 52.5069C214.8 54.104 214.212 55.8686 213.037 57.8007C211.862 59.7329 210.302 61.4361 208.343 62.9103C208.914 63.4408 209.535 63.8149 210.206 64.0383C210.878 64.2617 211.7 64.3733 212.679 64.3733H212.965L212.17 67.1152H211.622C210.1 67.1152 208.763 66.9477 207.611 66.6182C206.458 66.2887 205.457 65.775 204.617 65.0825V65.0881ZM206.715 60.7995C208.125 59.8781 209.317 58.6328 210.279 57.0692C211.241 55.5056 211.723 54.1375 211.723 52.976C211.723 52.3952 211.583 51.9485 211.297 51.647C211.012 51.3454 210.598 51.189 210.055 51.189C208.931 51.189 207.929 51.848 207.062 53.1714C206.195 54.4949 205.759 56.025 205.759 57.7728C205.759 58.4373 205.831 59.0069 205.982 59.4872C206.134 59.9674 206.374 60.403 206.715 60.7995Z" fill="white"/>
<path d="M212.17 67.1151L212.942 64.3733C214.464 64.2225 215.644 63.7143 216.495 62.8376C217.345 61.9609 218.095 60.3694 218.744 58.052L220.456 52.0154H218.481C218.184 52.0154 217.977 51.9764 217.871 51.9038C217.765 51.8312 217.709 51.6971 217.709 51.5073C217.709 51.4794 217.709 51.4459 217.72 51.4068C217.725 51.3677 217.748 51.2839 217.793 51.1611L218.117 50.1838C218.201 49.927 218.335 49.7483 218.537 49.6533C218.732 49.5584 219.124 49.5137 219.706 49.5137H221.211L223.208 42.9299C223.314 42.5781 223.443 42.0923 223.594 41.4669C224.014 39.7079 224.858 38.8256 226.117 38.8256C227.012 38.8256 227.712 38.9372 228.215 39.1606C228.719 39.384 228.971 39.6967 228.971 40.1043C228.971 40.378 228.814 40.8973 228.501 41.6679C228.338 42.0756 228.215 42.3994 228.131 42.6452L225.793 49.5137H229.211C229.468 49.5137 229.664 49.5528 229.804 49.6254C229.938 49.698 230.006 49.8209 230.006 49.9828C230.006 50.0498 230.006 50.1112 229.994 50.1671C229.989 50.2229 229.978 50.2732 229.966 50.329L229.62 51.3063C229.536 51.5631 229.39 51.7474 229.172 51.8535C228.954 51.9596 228.573 52.0154 228.031 52.0154H225.038L223.04 58.5769C222.811 59.3084 222.637 59.9394 222.531 60.4755C222.425 61.0116 222.369 61.4472 222.369 61.7878C222.369 62.5584 222.733 63.1615 223.465 63.5971C224.198 64.0326 225.289 64.2895 226.744 64.3677L225.949 67.1095H225.463C223.656 67.1095 222.145 66.8973 220.925 66.4674C219.706 66.043 218.822 65.4231 218.279 64.6078C217.412 65.3505 216.45 65.9424 215.398 66.378C214.346 66.8136 213.272 67.0537 212.17 67.1095V67.1151Z" fill="white"/>
<path d="M159.938 30.4994L153.437 31.7391L150.019 13.4174L149.907 13.3839C149.538 14.2271 148.732 16.1257 147.479 19.0909C146.226 22.0561 144.962 25.2056 143.686 28.545H138.617C137.353 25.2112 136.072 22.0226 134.768 18.9792C133.465 15.9358 132.67 14.0763 132.385 13.4006H132.279C132.144 14.0484 131.691 16.2653 130.919 20.0458C130.147 23.8263 129.414 27.7185 128.709 31.7168L122.41 30.5162C123.836 24.1781 125.062 18.4487 126.085 13.3392C127.109 8.22405 127.702 5.27559 127.864 4.48822L134.399 3.79578C134.589 4.32628 135.344 6.25283 136.659 9.58659C137.974 12.9204 139.507 16.7232 141.258 21.0063H141.42C142.819 17.6055 144.301 13.9646 145.879 10.0724C147.451 6.18581 148.302 4.09174 148.425 3.79578L155.082 4.36536C155.149 4.82885 155.642 7.58745 156.559 12.6467C157.477 17.706 158.596 23.6588 159.927 30.4994H159.938Z" fill="white"/>
<path d="M184.504 21.0342C184.504 22.6033 184.208 24.1055 183.609 25.535C183.011 26.9646 182.121 28.2155 180.941 29.282C179.95 30.1755 178.826 30.8456 177.562 31.2812C176.297 31.7223 174.921 31.9401 173.427 31.9401C171.933 31.9401 170.602 31.7168 169.315 31.2812C168.028 30.84 166.887 30.1811 165.897 29.2988C164.755 28.2825 163.877 27.0484 163.262 25.6021C162.646 24.1557 162.333 22.6145 162.333 20.9895C162.333 19.3645 162.596 17.9405 163.127 16.6338C163.659 15.3271 164.476 14.1377 165.589 13.0655C166.591 12.0883 167.765 11.3512 169.102 10.8486C170.44 10.346 171.872 10.0947 173.41 10.0947C174.949 10.0947 176.375 10.3237 177.662 10.7872C178.949 11.2507 180.113 11.9598 181.142 12.9203C182.267 13.9925 183.111 15.1987 183.665 16.5501C184.219 17.8959 184.499 19.3924 184.499 21.0286L184.504 21.0342ZM178.294 21.1179C178.294 20.1575 178.149 19.2026 177.858 18.2532C177.567 17.3039 177.097 16.511 176.443 15.8744C176.062 15.4946 175.609 15.2099 175.078 15.0088C174.546 14.8134 173.998 14.7129 173.427 14.7129C172.75 14.7129 172.163 14.819 171.665 15.0256C171.167 15.2322 170.691 15.584 170.233 16.0698C169.69 16.6227 169.27 17.3542 168.979 18.2644C168.688 19.1746 168.543 20.0793 168.543 20.9895C168.543 22.0449 168.688 23.0166 168.979 23.9045C169.27 24.7923 169.763 25.563 170.456 26.2107C170.837 26.5905 171.284 26.8697 171.799 27.0539C172.314 27.2382 172.856 27.3276 173.427 27.3276C173.998 27.3276 174.596 27.2215 175.15 27.0037C175.699 26.7859 176.174 26.4732 176.566 26.0711C177.125 25.4736 177.55 24.7365 177.847 23.8542C178.143 22.9719 178.294 22.0617 178.294 21.1124V21.1179Z" fill="white"/>
<path d="M209.406 21.0342C209.406 22.6033 209.109 24.1055 208.511 25.535C207.912 26.9646 207.023 28.2155 205.842 29.282C204.852 30.1755 203.727 30.8456 202.463 31.2812C201.199 31.7223 199.822 31.9401 198.328 31.9401C196.835 31.9401 195.503 31.7168 194.216 31.2812C192.93 30.84 191.788 30.1811 190.798 29.2988C189.657 28.2825 188.778 27.0484 188.163 25.6021C187.548 24.1557 187.234 22.6145 187.234 20.9895C187.234 19.3645 187.497 17.9405 188.029 16.6338C188.56 15.3271 189.377 14.1377 190.49 13.0655C191.492 12.0883 192.667 11.3512 194.004 10.8486C195.341 10.346 196.773 10.0947 198.312 10.0947C199.85 10.0947 201.277 10.3237 202.564 10.7872C203.85 11.2507 205.014 11.9598 206.043 12.9203C207.168 13.9925 208.013 15.1987 208.567 16.5501C209.121 17.8959 209.4 19.3924 209.4 21.0286L209.406 21.0342ZM203.196 21.1179C203.196 20.1575 203.05 19.2026 202.759 18.2532C202.469 17.3039 201.999 16.511 201.344 15.8744C200.964 15.4946 200.51 15.2099 199.979 15.0088C199.447 14.8134 198.899 14.7129 198.328 14.7129C197.652 14.7129 197.064 14.819 196.566 15.0256C196.068 15.2322 195.593 15.584 195.134 16.0698C194.591 16.6227 194.172 17.3542 193.881 18.2644C193.59 19.1746 193.444 20.0793 193.444 20.9895C193.444 22.0449 193.59 23.0166 193.881 23.9045C194.172 24.7923 194.664 25.563 195.358 26.2107C195.738 26.5905 196.186 26.8697 196.7 27.0539C197.215 27.2382 197.758 27.3276 198.328 27.3276C198.899 27.3276 199.498 27.2215 200.052 27.0037C200.6 26.7859 201.075 26.4732 201.467 26.0711C202.027 25.4736 202.452 24.7365 202.748 23.8542C203.045 22.9719 203.196 22.0617 203.196 21.1124V21.1179Z" fill="white"/>
</g>
<defs>
<clipPath id="clip0_71_534">
<rect width="82.5641" height="69.2949" fill="white" transform="translate(0 0.852661)"/>
</clipPath>
<clipPath id="clip1_71_534">
<rect width="138.59" height="63.3974" fill="white" transform="translate(91.4102 3.80139)"/>
</clipPath>
</defs>
</svg>
