<svg width="1439" height="520" viewBox="0 0 1439 520" fill="none" xmlns="http://www.w3.org/2000/svg">
<g clip-path="url(#clip0_1_20)">
<path d="M1440 0H0V520H1440V0Z" fill="white"/>
<path d="M808.755 202.361C799.088 194.109 786.833 188.893 774.152 187.636C761.472 186.379 748.424 189.082 737.308 195.271C731.142 198.705 725.467 203.296 721.776 209.29C718.085 215.285 716.564 222.811 718.7 229.508C721.29 237.622 728.686 243.456 731.662 251.442C736.812 265.257 727.422 280.452 729.139 295.088C730.904 310.084 744.857 321.841 759.865 324.141C774.872 326.441 790.242 320.683 802.398 311.63C816.075 301.448 826.824 286.077 827.425 269.099C828.026 252.187 818.817 236.617 814.95 220.136C813.128 212.363 813.481 206.682 808.75 202.361H808.755Z" fill="black"/>
<path d="M-6.48537 263.071C-4.05327 265.869 -0.924919 268.174 2.36557 269.91C13.7058 275.89 27.8406 276.331 39.5338 271.067C51.2269 265.803 60.2257 254.956 63.1919 242.536C66.4824 228.773 62.6245 214.398 58.261 200.934C53.8975 187.47 48.9284 173.702 49.987 159.598C50.4067 154.039 51.7372 148.277 49.8726 143.023C46.811 134.396 36.6439 130.768 27.5831 129.184C8.49828 125.84 -12.4798 127.04 -28.3075 138.152C-37.7736 144.796 -44.6264 154.409 -52.6714 162.699C-58.2557 168.452 -64.4791 173.631 -69.4673 179.901C-74.4554 186.175 -78.218 193.877 -77.7745 201.863C-77.3787 209.02 -73.659 215.612 -69.1477 221.204C-64.6317 226.795 -59.2572 231.651 -54.7125 237.214C-50.6399 242.199 -47.2445 247.733 -42.7666 252.362C-38.2934 256.991 -32.4039 260.756 -25.9469 260.851C-22.6517 260.899 -19.3993 259.993 -16.1041 260.012C-12.8088 260.036 -9.48973 259.846 -6.48537 263.071Z" fill="black"/>
<path d="M1436.39 166.37C1438.83 169.168 1441.96 171.473 1445.25 173.209C1456.59 179.189 1470.72 179.63 1482.41 174.366C1494.11 169.102 1503.11 158.256 1506.07 145.835C1509.36 132.072 1505.5 117.697 1501.14 104.233C1496.78 90.769 1491.81 77.0014 1492.87 62.897C1493.29 57.3388 1494.62 51.5766 1492.75 46.3218C1489.69 37.6951 1479.52 34.0671 1470.46 32.483C1451.38 29.1395 1430.4 30.3394 1414.57 41.4512C1405.11 48.0955 1398.25 57.7087 1390.21 65.9987C1384.62 71.7514 1378.4 76.9303 1373.41 83.1999C1368.42 89.4743 1364.66 97.1762 1365.11 105.163C1365.5 112.319 1369.22 118.911 1373.73 124.503C1378.25 130.094 1383.62 134.951 1388.17 140.514C1392.24 145.498 1395.64 151.033 1400.11 155.661C1404.59 160.29 1410.48 164.056 1416.93 164.151C1420.23 164.198 1423.48 163.292 1426.78 163.311C1430.07 163.335 1433.39 163.145 1436.39 166.37Z" fill="black"/>
<path d="M62.0142 640.597C70.6792 640.597 76.3636 639.976 84.69 638.012C93.0163 636.049 101.142 632.459 107.242 626.488C115.444 618.459 119.178 607.072 122.631 596.155C127.223 581.628 131.844 566.993 133.542 551.859C134.696 541.601 134.109 530.176 127.152 522.512C121.744 516.56 113.551 514.075 105.716 512.159C83.3022 506.682 60.264 503.732 37.1877 503.39C30.7832 503.295 24.0067 503.504 18.575 506.871C13.1385 510.243 9.97201 516.195 7.05826 521.872C2.52311 530.707 -2.04544 539.628 -4.63491 549.208C-7.22438 558.788 -7.71558 569.212 -4.13896 578.479C2.48017 595.619 20.8211 604.833 33.1676 618.487C37.3689 623.13 40.9169 628.357 45.4282 632.701C49.9395 637.045 55.7289 640.554 62.0094 640.592L62.0142 640.597Z" fill="black"/>
<path d="M123.837 -35.1363C116.565 -36.3883 108.983 -35.8856 102.177 -33.1112C93.5267 -29.5875 86.3354 -22.1701 84.0892 -13.1451C82.63 -7.29274 83.2404 -1.15588 83.145 4.87666C82.8303 25.1416 74.5277 44.5481 73.202 64.7704C72.768 71.4384 73.1305 78.3151 75.7676 84.4615C78.4048 90.6031 83.6267 95.929 90.1838 97.366C99.3781 99.3815 108.544 93.6431 117.957 93.6525C125.883 93.662 133.146 97.7027 140.648 100.245C159.055 106.486 180.41 103.337 196.204 92.0543C201.812 88.0516 207.177 81.597 205.256 75.0001C203.153 67.7677 193.634 65.0644 190.577 58.1782C188.86 54.3083 189.542 49.7365 191.316 45.895C193.095 42.0535 195.866 38.7764 198.479 35.4424C203.896 28.5325 208.799 21.082 211.617 12.7825C214.436 4.48303 215.036 -4.78391 211.927 -12.9838C208.823 -21.1837 201.65 -28.0651 192.971 -29.5875C184.392 -31.0909 175.818 -27.4391 167.134 -26.7182C160.567 -26.1728 153.991 -27.3111 147.519 -28.5346C139.617 -30.0285 131.673 -33.3815 123.828 -35.141L123.837 -35.1363Z" fill="black"/>
<path d="M238.642 142.781C256.048 166.389 292.649 164.691 321.424 158.422C327.695 157.056 334.61 154.504 337.066 148.604C339.03 143.886 337.48 138.55 337.28 133.447C336.827 122.037 343.298 111.428 351.052 103.01C358.811 94.5868 368.058 87.5488 375.197 78.6044C382.336 69.6599 387.286 57.9221 384.42 46.8625C382.078 37.8326 374.83 30.6903 366.57 26.2845C354.615 19.9058 340.056 18.5399 327.113 22.5806C315.076 26.3367 303.727 34.6172 291.208 33.0521C281.084 31.7859 272.739 24.2262 262.729 22.2486C252.648 20.2567 241.808 24.5108 235.036 32.2032C228.269 39.8956 225.451 50.6186 226.538 60.7866C228.184 76.1667 238.069 90.1146 237.86 105.58C237.774 111.945 235.957 118.157 235.18 124.474C234.402 130.796 234.817 137.678 238.637 142.79L238.642 142.781Z" fill="black"/>
<path d="M1196.53 75.3889C1188.31 81.7819 1181.09 91.8172 1176.6 101.919C1171.56 113.249 1171.18 127.476 1178.9 137.199C1184.23 143.909 1192.47 147.509 1199.44 152.522C1207.85 158.573 1214.45 166.759 1222.43 173.361C1241.87 189.457 1269.61 195.053 1293.84 187.759C1304.61 184.515 1315.21 178.298 1320.11 168.215C1323.44 161.357 1323.79 153.428 1323.06 145.849C1322.34 138.266 1320.61 130.801 1320.01 123.208C1319.28 113.927 1320.25 104.57 1319.42 95.2982C1318.6 86.0265 1315.64 76.4133 1308.64 70.2433C1305.56 67.5353 1301.58 65.5624 1297.49 65.8706C1292.34 66.2595 1288.22 70.0251 1283.9 72.8327C1275.28 78.4289 1264.74 80.5678 1254.44 80.4018C1244.15 80.2358 1234.02 77.8883 1224.12 75.1186C1214.94 72.5482 1204.26 69.8259 1196.53 75.3937L1196.53 75.3889Z" fill="black"/>
<path d="M411.793 348.105C421.96 345.767 432.767 339.706 441.131 332.44C450.511 324.288 456.906 311.554 454.04 299.503C452.061 291.18 446.119 284.455 441.942 276.981C436.896 267.965 434.388 257.769 429.967 248.431C419.185 225.666 396.419 208.935 371.373 205.368C360.228 203.779 347.982 204.956 339.255 212.036C333.322 216.85 329.636 223.888 327.07 231.063C324.505 238.239 322.898 245.732 320.213 252.865C316.932 261.582 312.077 269.653 308.887 278.408C305.696 287.158 304.28 297.108 308.009 305.649C309.645 309.396 312.416 312.858 316.259 314.3C321.09 316.112 326.427 314.433 331.534 313.707C341.72 312.256 352.188 314.75 361.444 319.227C370.7 323.704 378.879 330.088 386.681 336.765C393.91 342.954 402.432 349.912 411.803 348.114L411.793 348.105Z" fill="black"/>
<path d="M1366.4 216.651C1355.09 211.747 1342.94 208.522 1330.61 208.261C1318.28 208.005 1305.74 210.813 1295.24 217.244C1284.76 223.655 1276.7 233.354 1270.11 243.688C1264.43 252.609 1259.63 262.369 1258.38 272.855C1257.13 283.34 1259.86 294.689 1267.44 302.083C1273.14 307.637 1280.98 310.496 1288.8 312.057C1296.62 313.622 1304.63 314.039 1312.46 315.547C1325.74 318.103 1338.66 323.785 1352.16 323.05C1367.37 322.215 1381.45 312.849 1389.61 300.044C1397.76 287.239 1400.35 271.403 1398.56 256.351C1397.47 247.145 1394.72 237.931 1389.12 230.527C1383.51 223.124 1377.44 221.422 1366.41 216.651H1366.4Z" fill="black"/>
<path d="M1419.16 507.9C1406.64 492.686 1389.45 480.664 1370.01 477.098C1350.57 473.531 1328.95 479.388 1316.07 494.299C1305.77 506.207 1301.82 522.342 1292.65 535.127C1289.13 540.031 1284.88 544.394 1281.49 549.384C1278.09 554.373 1275.53 560.253 1276.03 566.258C1276.65 573.699 1281.76 579.935 1286.94 585.337C1293.82 592.522 1301.52 599.361 1310.92 602.685C1323.43 607.105 1337.27 604.767 1350.1 601.376C1364.98 597.445 1379.97 591.886 1391.12 581.32C1401.56 571.427 1407.75 558.015 1413.69 544.949C1416.4 539.007 1419.12 533.008 1420.5 526.629C1421.88 520.25 1423.59 513.928 1419.17 507.896L1419.16 507.9Z" fill="black"/>
<path d="M1184.82 -4.33817C1172.3 -19.5523 1155.11 -31.5747 1135.67 -35.1411C1116.23 -38.7075 1094.61 -32.8504 1081.73 -17.9398C1071.43 -6.03126 1067.48 10.1029 1058.31 22.8888C1054.79 27.7926 1050.54 32.1558 1047.15 37.145C1043.75 42.1341 1041.19 48.0149 1041.69 54.019C1042.31 61.46 1047.42 67.6965 1052.6 73.0983C1059.48 80.2832 1067.18 87.122 1076.58 90.4465C1089.09 94.8666 1102.93 92.5285 1115.76 89.1376C1130.64 85.206 1145.63 79.6477 1156.78 69.0813C1167.22 59.1883 1173.41 45.7764 1179.35 32.7107C1182.06 26.7682 1184.78 20.7689 1186.16 14.3902C1187.54 8.01145 1189.25 1.68962 1184.83 -4.34291L1184.82 -4.33817Z" fill="black"/>
<path d="M125.759 256.071C115.649 256.602 107.108 262.639 101.157 269.834C95.2052 277.028 92.0006 286.703 93.6601 295.87C94.9238 302.847 98.82 309.116 100.279 316.05C102.702 327.541 98.2334 339.198 95.086 350.514C91.9338 361.83 90.3982 375.038 97.561 384.371C103.851 392.571 115.001 395.26 125.335 396.194C133.203 396.906 141.272 396.906 148.845 394.667C156.418 392.429 163.504 387.719 167.267 380.81C170.267 375.303 170.963 368.891 172.756 362.887C174.549 356.883 178.04 350.718 184.001 348.698C188.832 347.061 194.454 348.461 198.999 346.151C201.97 344.638 203.987 341.759 205.556 338.828C211.307 328.087 212.58 315.054 209.013 303.411C207.411 298.175 204.879 293.219 203.768 287.86C202.656 282.501 203.243 276.35 207.115 272.456C208.76 270.801 210.868 269.682 212.647 268.169C214.426 266.656 215.942 264.508 215.709 262.189C215.461 259.699 213.319 257.854 211.221 256.474C205.637 252.813 199.156 250.517 192.504 249.839C183.281 248.9 174.067 251.025 164.93 252.604C152.002 254.838 138.888 255.995 125.769 256.061L125.759 256.071Z" fill="black"/>
<path d="M845.318 178.691C838.956 191.003 832.475 203.689 831.14 217.466C829.805 231.244 834.798 246.553 846.796 253.562C857.607 259.874 871.112 258.196 883.559 256.697C896.006 255.198 909.84 254.425 919.797 261.999C927.718 268.022 931.495 278.185 939.164 284.517C950.423 293.822 968.745 292.024 979.083 281.714C989.422 271.403 991.559 254.425 985.559 241.146C978.382 225.268 961.143 213.966 959.112 196.675C958.372 190.377 959.822 183.993 959.259 177.676C958.582 170.14 954.906 162.894 949.159 157.933C943.413 152.968 935.663 150.355 928.071 150.886C908.08 152.28 893.311 173.669 873.273 173.493C867.679 173.446 862.109 171.653 856.563 172.412C852.791 172.929 848.05 173.223 845.323 178.696L845.318 178.691Z" fill="black"/>
<path d="M-116.078 -7.93301C-122.439 4.37866 -128.92 17.065 -130.255 30.8421C-131.591 44.6192 -126.598 59.9282 -114.599 66.9377C-103.788 73.25 -90.283 71.5712 -77.8364 70.0725C-65.3897 68.5692 -51.5554 67.8009 -41.5981 75.3747C-33.6771 81.3978 -29.9002 91.561 -22.2319 97.8924C-10.9727 107.197 7.34914 105.4 17.6879 95.0895C28.0267 84.7792 30.1632 67.8008 24.164 54.5217C16.9869 38.6436 -0.25238 27.3421 -2.28389 10.0508C-3.02306 3.75264 -1.57335 -2.63084 -2.13606 -8.94792C-2.81324 -16.4838 -6.48999 -23.7305 -12.2364 -28.6912C-17.9829 -33.6566 -25.7322 -36.2698 -33.3242 -35.7386C-53.3151 -34.3443 -68.0841 -12.9554 -88.1227 -13.1308C-93.7166 -13.1783 -99.2865 -14.971 -104.833 -14.2122C-108.605 -13.6952 -113.345 -13.4012 -116.073 -7.92828L-116.078 -7.93301Z" fill="black"/>
<path d="M574.172 439.802C567.81 452.114 561.329 464.8 559.994 478.577C558.659 492.354 563.652 507.663 575.65 514.673C586.461 520.985 599.967 519.306 612.413 517.808C624.86 516.304 638.694 515.536 648.651 523.11C656.572 529.133 660.349 539.296 668.018 545.628C679.277 554.932 697.599 553.135 707.937 542.825C718.276 532.514 720.413 515.536 714.414 502.257C707.236 486.379 689.997 475.077 687.966 457.786C687.227 451.488 688.676 445.104 688.113 438.787C687.436 431.251 683.76 424.005 678.013 419.044C672.267 414.083 664.517 411.465 656.925 411.997C636.934 413.391 622.165 434.78 602.127 434.604C596.533 434.557 590.963 432.764 585.417 433.523C581.645 434.04 576.904 434.334 574.177 439.807L574.172 439.802Z" fill="black"/>
<path d="M892.706 141.842C900.818 139.347 907.947 133.708 912.525 126.59C917.919 118.2 919.573 107.52 916.965 97.9019C911.7 78.4953 891.404 66.6864 883.369 48.2426C878.695 37.5244 878.19 24.6626 870.316 15.9932C864.012 9.05009 854.178 6.35157 844.784 5.82515C830.749 5.03789 816.791 8.34346 803.443 12.7256C794.864 15.5427 786.199 18.9573 779.618 25.1179C773.037 31.2737 768.917 40.7683 771.401 49.4045C774.382 59.7575 785.498 65.8896 789.652 75.83C796.08 91.2291 783.71 108.933 787.682 125.129C789.551 132.75 794.997 139.205 801.645 143.426C808.298 147.651 816.08 149.819 823.892 150.924C846.992 154.196 870.307 148.619 892.706 141.827V141.842Z" fill="black"/>
<path d="M1150.19 427.642C1139.01 431.341 1130.53 432.935 1121.75 441.059C1112.97 449.183 1106.79 459.759 1102.3 470.823C1097.88 481.736 1094.98 493.521 1096.09 505.235C1097.2 516.949 1102.74 528.606 1112.5 535.274C1121.19 541.217 1132.08 542.678 1142.23 545.509C1153.82 548.743 1164.78 553.922 1176.34 557.247C1187.9 560.571 1200.6 561.937 1211.78 557.527C1221.08 553.861 1228.71 546.206 1232.31 536.93C1235.91 527.653 1235.44 516.888 1231.03 507.957C1228.17 502.157 1223.77 497.14 1221.57 491.06C1218.9 483.666 1219.77 475.48 1218.06 467.807C1215.54 456.463 1207.53 447.016 1198.36 439.812C1184.82 429.174 1166.63 422.397 1150.19 427.633V427.642Z" fill="black"/>
<path d="M489.316 -22.6871C478.133 -18.9879 469.654 -17.3944 460.874 -9.27043C452.095 -1.14643 445.91 9.42947 441.427 20.4938C437.001 31.4065 434.097 43.1917 435.208 54.9058C436.32 66.6199 441.866 78.2771 451.618 84.9452C460.311 90.8876 471.199 92.3483 481.356 95.1796C492.945 98.414 503.903 103.593 515.463 106.917C527.023 110.242 539.717 111.608 550.905 107.197C560.199 103.531 567.829 95.8768 571.43 86.6003C575.03 77.3239 574.558 66.5583 570.157 57.6281C567.295 51.8279 562.889 46.8103 560.69 40.7303C558.02 33.3367 558.888 25.151 557.181 17.4776C554.658 6.13338 546.656 -3.31378 537.485 -10.5177C523.947 -21.1553 505.749 -27.9324 489.316 -22.6966V-22.6871Z" fill="black"/>
<path d="M152.002 407.757C135.912 418.494 129.169 434.472 127.266 452.773C125.363 471.075 133.318 490.742 149.031 500.45C161.134 507.929 176.066 508.968 189.475 513.772C201.941 518.239 213.029 525.941 225.451 530.522C237.874 535.104 253.049 535.981 263.292 527.625C269.153 522.844 272.563 515.707 274.837 508.517C278.557 496.751 279.702 484.183 278.166 471.942C277.126 463.633 274.413 454.817 267.555 449.956C263.068 446.778 257.431 445.749 252.424 443.473C245.004 440.101 239.186 434.111 233.253 428.543C222.256 418.228 209.962 408.8 195.642 403.982C181.321 399.163 164.644 399.514 152.002 407.752V407.757Z" fill="black"/>
<path d="M840.396 387.71C837.306 395.772 835.017 404.11 834.807 412.694C834.516 424.702 838.918 437.379 848.641 444.497C853.734 448.225 860.101 450.364 864.211 455.139C868.885 460.57 869.672 468.276 869.481 475.423C869.29 482.57 868.365 489.888 870.392 496.746C873.081 505.856 880.84 512.923 889.701 516.465C898.557 520.008 908.409 520.378 917.904 519.368C925.868 518.519 933.832 516.693 940.87 512.885C947.904 509.077 953.97 503.148 956.875 495.726C960.446 486.602 958.978 476.367 960.494 466.692C962.755 452.284 971.458 439.849 977.867 426.736C984.276 413.623 988.349 397.603 981.296 384.822C978.325 379.444 972.678 374.82 966.555 375.588C962.001 376.157 958.372 379.477 954.714 382.232C942.067 391.755 925.834 395.815 909.973 395.63C894.112 395.445 878.532 391.262 863.711 385.637C859.676 384.105 855.604 382.446 851.298 382.166C846.991 381.886 842.747 381.265 840.391 387.71H840.396Z" fill="black"/>
<path d="M-118.281 306.57C-121.371 314.632 -123.66 322.969 -123.87 331.553C-124.161 343.561 -119.759 356.238 -110.035 363.357C-104.942 367.085 -98.5759 369.223 -94.4652 373.999C-89.7918 379.429 -89.0049 387.136 -89.1957 394.283C-89.3864 401.43 -90.3116 408.748 -88.2848 415.606C-85.5952 424.716 -77.8363 431.782 -68.9759 435.325C-60.1154 438.868 -50.2678 439.238 -40.773 438.228C-32.8091 437.379 -24.8451 435.553 -17.8064 431.745C-10.7723 427.936 -4.70639 422.008 -1.80218 414.586C1.76968 405.461 0.300888 395.227 1.81738 385.552C4.0778 371.144 12.7809 358.709 19.1902 345.596C25.5995 332.483 29.6721 316.463 22.619 303.681C19.648 298.303 14.0017 293.679 7.87854 294.448C3.3243 295.017 -0.304779 298.336 -3.96247 301.092C-16.6094 310.615 -32.8424 314.675 -48.7036 314.49C-64.5647 314.305 -80.1444 310.122 -94.966 304.497C-99.0004 302.965 -103.073 301.305 -107.379 301.026C-111.685 300.746 -115.93 300.124 -118.286 306.57H-118.281Z" fill="black"/>
<path d="M569.25 118.693C566.16 126.756 563.871 135.093 563.661 143.677C563.37 155.685 567.772 168.362 577.495 175.481C582.588 179.208 588.955 181.347 593.066 186.123C597.739 191.553 598.526 199.26 598.335 206.407C598.144 213.554 597.219 220.872 599.246 227.729C601.936 236.84 609.694 243.906 618.555 247.449C627.411 250.992 637.263 251.361 646.758 250.351C654.722 249.502 662.686 247.676 669.724 243.868C676.758 240.06 682.824 234.132 685.729 226.71C689.3 217.585 687.832 207.351 689.348 197.676C691.609 183.268 700.312 170.833 706.721 157.72C713.13 144.607 717.203 128.586 710.15 115.805C707.179 110.427 701.532 105.803 695.409 106.571C690.855 107.14 687.226 110.46 683.568 113.216C670.921 122.739 654.688 126.798 638.827 126.613C622.966 126.428 607.386 122.245 592.565 116.621C588.53 115.089 584.458 113.429 580.152 113.149C575.845 112.869 571.601 112.248 569.245 118.693H569.25Z" fill="black"/>
<path d="M979.503 118.693C976.413 126.756 974.124 135.093 973.914 143.677C973.623 155.685 978.025 168.362 987.753 175.481C992.846 179.208 999.212 181.347 1003.32 186.123C1008 191.553 1008.78 199.26 1008.59 206.407C1008.4 213.554 1007.48 220.872 1009.5 227.729C1012.19 236.84 1019.95 243.906 1028.81 247.449C1037.67 250.992 1047.52 251.361 1057.02 250.351C1064.98 249.502 1072.94 247.676 1079.98 243.868C1087.02 240.06 1093.08 234.132 1095.99 226.71C1099.56 217.585 1098.09 207.351 1099.61 197.676C1101.87 183.268 1110.57 170.833 1116.98 157.72C1123.39 144.607 1127.46 128.586 1120.41 115.805C1117.44 110.427 1111.79 105.803 1105.67 106.571C1101.11 107.14 1097.48 110.46 1093.83 113.216C1081.18 122.739 1064.95 126.798 1049.08 126.613C1033.22 126.428 1017.64 122.245 1002.82 116.621C998.788 115.089 994.716 113.429 990.409 113.149C986.103 112.869 981.859 112.248 979.503 118.693Z" fill="black"/>
<path d="M417.592 380.672C408.722 385.324 403.181 401.634 400.081 413.543C396.981 425.451 398.474 439.276 406.977 448.206C412.494 454.001 420.644 457.535 424.173 464.701C429.376 475.257 422.046 487.678 422.819 499.407C423.539 510.314 431.617 519.866 441.594 524.466C451.57 529.066 463.101 529.308 473.931 527.416C487.393 525.064 500.76 519.159 509.211 508.474C515.782 500.165 518.872 489.741 523.441 480.194C527.766 471.16 533.465 462.846 538.229 454.035C542.993 445.223 546.88 435.643 547.109 425.641C547.338 415.639 543.36 405.12 535.072 399.443C528.095 394.662 519.111 393.861 510.656 394.402C502.201 394.942 493.803 396.659 485.338 396.318C467.484 395.597 451.398 385.903 434.231 380.961C428.851 379.41 422.499 378.585 417.597 380.667L417.592 380.672Z" fill="black"/>
<path d="M1025.15 33.441C1030.73 26.9722 1034.26 18.777 1035.11 10.2926C1035.97 1.80817 1034.13 -6.91814 1029.95 -14.3545C1027.63 -18.4805 1024.52 -22.2745 1020.47 -24.7454C1016.41 -27.2163 1011.32 -28.2312 1006.79 -26.8037C1001.3 -25.0679 997.353 -20.1214 991.954 -18.1343C982.612 -14.6912 972.331 -20.9703 962.43 -19.8226C952.287 -18.6417 944.333 -9.30839 942.778 0.731602C941.223 10.7716 945.12 21.0535 951.238 29.1869C958.124 38.3353 968.525 45.525 980.008 45.9281C991.449 46.3313 1001.98 40.1659 1013.13 37.5813C1018.38 36.3624 1022.23 36.5995 1025.15 33.4363V33.441Z" fill="black"/>
<path d="M946.173 357.841C951.758 351.372 955.282 343.177 956.135 334.693C956.989 326.208 955.158 317.482 950.971 310.046C948.649 305.92 945.544 302.126 941.49 299.655C937.437 297.184 932.344 296.169 927.813 297.597C922.325 299.332 918.376 304.279 912.978 306.266C903.635 309.709 893.354 303.43 883.454 304.578C873.311 305.759 865.356 315.092 863.802 325.132C862.247 335.172 866.143 345.454 872.261 353.587C879.148 362.736 889.548 369.925 901.032 370.328C912.472 370.732 923.002 364.566 934.151 361.982C939.407 360.763 943.25 361 946.173 357.837V357.841Z" fill="black"/>
<path d="M1219.12 385.543C1224.7 379.074 1228.23 370.879 1229.08 362.394C1229.93 353.91 1228.1 345.183 1223.91 337.747C1221.59 333.621 1218.49 329.827 1214.43 327.356C1210.38 324.885 1205.29 323.87 1200.76 325.298C1195.27 327.034 1191.32 331.98 1185.92 333.967C1176.58 337.41 1166.3 331.131 1156.4 332.279C1146.25 333.46 1138.3 342.793 1136.75 352.833C1135.19 362.873 1139.09 373.155 1145.21 381.288C1152.09 390.437 1162.49 397.627 1173.98 398.03C1185.42 398.433 1195.95 392.267 1207.1 389.683C1212.35 388.464 1216.19 388.701 1219.12 385.538V385.543Z" fill="black"/>
<path d="M92.449 186.232C92.449 192.027 92.8686 195.831 94.1944 201.403C95.5201 206.976 97.9522 212.411 101.987 216.489C107.418 221.977 115.12 224.476 122.507 226.786C132.331 229.859 142.236 232.951 152.469 234.084C159.408 234.857 167.138 234.464 172.317 229.811C176.342 226.193 178.026 220.71 179.318 215.47C183.023 200.474 185.017 185.065 185.246 169.624C185.308 165.341 185.169 160.807 182.89 157.17C180.61 153.532 176.581 151.417 172.742 149.468C166.766 146.432 160.734 143.378 154.253 141.642C147.772 139.911 140.719 139.584 134.453 141.974C122.86 146.399 116.622 158.673 107.39 166.934C104.247 169.747 100.713 172.118 97.7758 175.139C94.8382 178.155 92.4633 182.03 92.4395 186.232H92.449Z" fill="black"/>
<path d="M305.777 503.514C305.777 509.309 306.197 513.112 307.523 518.685C308.848 524.257 311.28 529.692 315.315 533.771C320.747 539.258 328.448 541.758 335.835 544.067C345.659 547.14 355.564 550.232 365.798 551.366C372.736 552.139 380.467 551.745 385.646 547.093C389.67 543.474 391.354 537.992 392.646 532.751C396.351 517.755 398.345 502.347 398.579 486.905C398.641 482.623 398.502 478.089 396.223 474.451C393.943 470.814 389.914 468.698 386.075 466.749C380.099 463.714 374.067 460.66 367.586 458.924C361.105 457.193 354.052 456.866 347.786 459.256C336.193 463.681 329.955 475.955 320.723 484.216C317.58 487.028 314.046 489.4 311.109 492.421C308.171 495.437 305.796 499.312 305.772 503.514H305.777Z" fill="black"/>
<path d="M1388.25 393.42C1388.25 399.215 1388.67 403.019 1390 408.591C1391.32 414.164 1393.76 419.599 1397.79 423.677C1403.22 429.165 1410.92 431.664 1418.31 433.973C1428.14 437.047 1438.04 440.139 1448.27 441.272C1455.21 442.045 1462.94 441.652 1468.12 436.999C1472.15 433.381 1473.83 427.898 1475.12 422.658C1478.83 407.662 1480.82 392.253 1481.05 376.811C1481.12 372.529 1480.98 367.995 1478.7 364.357C1476.42 360.72 1472.39 358.605 1468.55 356.656C1462.58 353.62 1456.54 350.566 1450.06 348.83C1443.58 347.099 1436.53 346.772 1430.26 349.162C1418.67 353.587 1412.43 365.861 1403.2 374.122C1400.06 376.935 1396.52 379.306 1393.58 382.327C1390.65 385.343 1388.27 389.218 1388.25 393.42H1388.25Z" fill="black"/>
<path d="M754.929 475.646C738.958 487.289 740.108 511.775 744.347 531.03C745.272 535.227 746.999 539.851 750.99 541.497C754.181 542.81 757.791 541.777 761.243 541.639C768.964 541.335 776.136 545.665 781.835 550.854C787.534 556.042 792.293 562.231 798.345 567.007C804.396 571.783 812.336 575.093 819.819 573.177C825.928 571.612 830.758 566.76 833.739 561.235C838.055 553.239 838.98 543.498 836.247 534.838C833.705 526.785 828.107 519.193 829.165 510.817C830.019 504.045 835.136 498.463 836.471 491.766C837.821 485.022 834.941 477.771 829.738 473.242C824.535 468.713 817.282 466.83 810.405 467.556C800.004 468.656 790.567 475.272 780.109 475.129C775.802 475.073 771.601 473.858 767.328 473.337C763.055 472.815 758.396 473.095 754.939 475.651L754.929 475.646Z" fill="black"/>
<path d="M275.586 348.902C271.099 345.259 264.761 343.666 258.995 344.809C250.492 346.497 243.559 353.198 240.087 361.099C236.61 369 236.224 377.945 237.273 386.505C238.961 400.235 244.899 414.282 256.578 421.79C264.255 426.727 273.593 428.349 282.696 429.202C291.8 430.056 301.056 430.26 309.84 432.788C315.267 434.348 320.833 436.805 326.345 435.576C331.076 434.524 334.877 430.815 337.08 426.518C341.768 417.37 339.431 405.2 331.687 398.414C328.763 395.853 325.106 393.904 323.236 390.508C320.847 386.159 322.082 380.838 322.869 375.944C323.684 370.893 323.928 365.619 322.34 360.753C320.752 355.887 317.056 351.482 312.101 350.111C307.828 348.93 303.264 350.092 299.115 351.643C294.967 353.194 290.884 355.162 286.478 355.641C282.072 356.124 278.824 351.524 275.591 348.902H275.586Z" fill="black"/>
<path d="M99.4974 401.364C95.1768 395.862 88.386 391.034 81.5523 388.032C73.8888 384.665 64.2653 384.404 57.6891 389.574C53.1492 393.14 50.7171 398.656 47.3217 403.313C43.23 408.938 37.6886 413.358 33.225 418.693C22.3378 431.702 18.5513 450.264 23.487 466.465C25.6807 473.673 29.8868 480.764 36.7062 484.041C41.3463 486.27 46.7065 486.502 51.8377 486.018C56.9642 485.535 62.0144 484.377 67.1504 483.979C73.4262 483.491 79.7592 484.136 86.0302 483.585C92.3012 483.031 98.8059 481.058 102.979 476.372C104.81 474.314 106.145 471.648 105.935 468.912C105.673 465.469 103.126 462.709 101.228 459.82C97.442 454.058 95.9971 447.001 96.1067 440.115C96.2212 433.229 97.8044 426.457 99.6834 419.827C101.424 413.68 103.265 406.538 99.4974 401.368V401.364Z" fill="black"/>
<path d="M795.865 363.513C791.54 358.012 784.754 353.184 777.92 350.182C770.256 346.815 760.633 346.554 754.057 351.723C749.517 355.29 747.085 360.805 743.689 365.463C739.598 371.087 734.056 375.507 729.593 380.843C718.705 393.851 714.919 412.414 719.855 428.614C722.048 435.823 726.254 442.913 733.074 446.19C737.714 448.419 743.074 448.652 748.205 448.168C753.337 447.684 758.382 446.527 763.518 446.129C769.794 445.64 776.127 446.285 782.398 445.735C788.669 445.18 795.174 443.207 799.346 438.522C801.177 436.463 802.513 433.798 802.303 431.062C802.041 427.618 799.494 424.858 797.596 421.97C793.81 416.208 792.365 409.151 792.474 402.265C792.589 395.379 794.172 388.606 796.051 381.976C797.792 375.83 799.632 368.687 795.865 363.518V363.513Z" fill="black"/>
<path d="M547.314 166.593C542.988 161.092 536.202 156.264 529.369 153.262C521.705 149.894 512.082 149.634 505.505 154.803C500.966 158.369 498.533 163.885 495.138 168.542C491.046 174.167 485.505 178.587 481.041 183.922C470.154 196.931 466.368 215.494 471.303 231.694C473.497 238.903 477.703 245.993 484.523 249.27C489.163 251.499 494.523 251.731 499.654 251.248C504.785 250.764 509.831 249.607 514.967 249.208C521.243 248.72 527.576 249.365 533.847 248.815C540.118 248.26 546.622 246.287 550.795 241.601C552.626 239.543 553.962 236.878 553.752 234.141C553.489 230.698 550.943 227.938 549.045 225.05C545.258 219.288 543.813 212.231 543.923 205.344C544.038 198.458 545.621 191.686 547.5 185.056C549.24 178.909 551.081 171.767 547.314 166.598V166.593Z" fill="black"/>
<path d="M1333.71 369.119C1329.39 363.618 1322.6 358.79 1315.77 355.788C1308.1 352.421 1298.48 352.16 1291.9 357.329C1287.36 360.895 1284.93 366.411 1281.54 371.068C1277.44 376.693 1271.9 381.113 1267.44 386.448C1256.55 399.457 1252.77 418.02 1257.7 434.22C1259.9 441.429 1264.1 448.519 1270.92 451.796C1275.56 454.025 1280.92 454.257 1286.05 453.774C1291.18 453.29 1296.23 452.133 1301.37 451.734C1307.64 451.246 1313.97 451.891 1320.24 451.341C1326.52 450.786 1333.02 448.813 1337.19 444.127C1339.02 442.069 1340.36 439.404 1340.15 436.667C1339.89 433.224 1337.34 430.464 1335.44 427.576C1331.66 421.814 1330.21 414.757 1330.32 407.87C1330.44 400.984 1332.02 394.212 1333.9 387.582C1335.64 381.435 1337.48 374.293 1333.71 369.124V369.119Z" fill="black"/>
<path d="M1015 369.826C1016.58 376.627 1020.68 383.859 1025.59 389.45C1031.11 395.725 1039.72 400.003 1047.87 398.087C1053.5 396.763 1058.06 392.789 1063.11 389.991C1069.2 386.614 1076.1 384.94 1082.42 381.981C1097.82 374.767 1109.13 359.539 1111.55 342.784C1112.62 335.328 1111.82 327.133 1107.04 321.295C1103.78 317.326 1099.02 314.859 1094.16 313.143C1089.31 311.426 1084.25 310.349 1079.42 308.557C1073.52 306.361 1068.06 303.112 1062.14 300.978C1056.22 298.844 1049.49 297.895 1043.72 300.395C1041.18 301.49 1038.84 303.345 1037.86 305.91C1036.64 309.14 1037.77 312.711 1038.26 316.13C1039.25 322.946 1037.56 329.95 1034.53 336.139C1031.5 342.333 1027.19 347.806 1022.67 353.023C1018.48 357.86 1013.77 363.561 1014.99 369.826H1015Z" fill="black"/>
<path d="M1432.68 280.291C1434.26 287.092 1438.36 294.324 1443.28 299.916C1448.79 306.19 1457.41 310.468 1465.56 308.552C1471.19 307.229 1475.74 303.255 1480.79 300.456C1486.89 297.08 1493.79 295.406 1500.11 292.446C1515.5 285.233 1526.82 270.004 1529.23 253.244C1530.31 245.789 1529.51 237.594 1524.72 231.756C1521.47 227.786 1516.71 225.32 1511.85 223.603C1507 221.887 1501.93 220.81 1497.11 219.017C1491.21 216.821 1485.75 213.573 1479.83 211.439C1473.91 209.304 1467.18 208.356 1461.4 210.855C1458.87 211.951 1456.52 213.805 1455.55 216.371C1454.33 219.601 1455.46 223.172 1455.95 226.591C1456.93 233.406 1455.25 240.411 1452.22 246.6C1449.19 252.794 1444.87 258.267 1440.35 263.483C1436.17 268.321 1431.46 274.021 1432.68 280.286L1432.68 280.291Z" fill="black"/>
<path d="M283.707 267.633C293.998 259.258 302.129 247.762 304.542 234.753C306.955 221.749 302.992 207.284 292.906 198.662C284.852 191.776 273.941 189.134 265.29 182.998C261.971 180.645 259.024 177.8 255.647 175.528C252.271 173.256 248.294 171.544 244.231 171.876C239.2 172.289 234.979 175.708 231.322 179.17C226.462 183.775 221.836 188.921 219.586 195.214C216.595 203.58 218.179 212.842 220.473 221.422C223.134 231.381 226.891 241.407 234.04 248.867C240.73 255.853 249.806 259.993 258.642 263.972C262.662 265.784 266.721 267.605 271.036 268.525C275.352 269.445 279.625 270.593 283.707 267.633Z" fill="black"/>
<path d="M1047.54 549.773C1057.84 541.397 1065.97 529.901 1068.38 516.892C1070.79 503.888 1066.83 489.423 1056.74 480.802C1048.69 473.915 1037.78 471.274 1029.13 465.137C1025.81 462.785 1022.86 459.939 1019.48 457.667C1016.11 455.396 1012.13 453.684 1008.07 454.016C1003.04 454.428 998.817 457.848 995.159 461.31C990.3 465.915 985.674 471.06 983.423 477.354C980.433 485.72 982.016 494.982 984.31 503.561C986.971 513.52 990.729 523.546 997.877 531.006C1004.57 537.992 1013.64 542.132 1022.48 546.111C1026.5 547.923 1030.56 549.744 1034.87 550.664C1039.19 551.584 1043.46 552.732 1047.54 549.773Z" fill="black"/>
<path d="M460.001 116.099C449.143 108.464 435.833 103.73 422.585 104.883C409.337 106.035 396.376 113.685 390.706 125.646C386.175 135.202 386.523 146.366 382.88 156.292C381.483 160.1 379.513 163.686 378.207 167.527C376.905 171.369 376.304 175.637 377.706 179.441C379.446 184.155 383.881 187.29 388.211 189.869C393.967 193.303 400.191 196.367 406.886 196.846C415.79 197.486 424.345 193.502 432.051 189.021C440.993 183.818 449.71 177.544 455.037 168.708C460.025 160.432 461.623 150.634 463.125 141.102C463.807 136.767 464.494 132.39 464.236 128.012C463.979 123.635 463.955 119.229 459.997 116.104L460.001 116.099Z" fill="black"/>
<path d="M1225.02 216.129C1214.16 208.493 1200.85 203.76 1187.6 204.913C1174.36 206.065 1161.4 213.715 1155.73 225.676C1151.19 235.232 1151.54 246.396 1147.9 256.322C1146.5 260.13 1144.53 263.716 1143.23 267.557C1141.92 271.399 1141.32 275.667 1142.73 279.471C1144.47 284.185 1148.9 287.319 1153.23 289.899C1158.99 293.333 1165.21 296.397 1171.91 296.876C1180.81 297.516 1189.36 293.532 1197.07 289.051C1206.01 283.848 1214.73 277.574 1220.06 268.738C1225.04 260.462 1226.64 250.664 1228.14 241.132C1228.83 236.797 1229.51 232.42 1229.26 228.042C1229 223.66 1228.97 219.259 1225.02 216.134L1225.02 216.129Z" fill="black"/>
<path d="M504.475 341.318C506.163 346.744 509.974 351.515 514.79 354.578C520.465 358.188 527.69 359.293 534.195 357.547C547.323 354.024 555.311 340.45 567.786 335.072C575.035 331.947 583.738 331.605 589.599 326.341C594.296 322.12 596.118 315.542 596.475 309.259C597.01 299.868 594.773 290.53 591.807 281.6C589.899 275.862 587.591 270.066 583.423 265.66C579.26 261.259 572.836 258.499 566.995 260.164C559.994 262.156 555.845 269.597 549.116 272.371C538.701 276.672 526.727 268.397 515.768 271.053C510.613 272.305 506.245 275.947 503.388 280.395C500.531 284.844 499.063 290.051 498.314 295.278C496.101 310.733 499.873 326.332 504.466 341.314L504.475 341.318Z" fill="black"/>
<path d="M693.373 305.678C686.11 294.912 675.304 290.402 662.924 289.131C650.544 287.855 637.239 293.177 630.673 303.691C625.613 311.791 624.912 321.779 621.664 330.747C618.646 339.089 613.433 346.502 610.334 354.816C607.234 363.129 606.638 373.278 612.294 380.131C615.527 384.053 620.353 386.335 625.217 387.857C633.176 390.347 641.679 391.11 649.958 390.086C655.576 389.389 661.541 387.577 664.832 382.991C666.983 379.989 667.679 376.219 669.219 372.866C671.499 367.9 675.552 364.011 679.32 360.042C686.296 352.686 692.672 344.458 695.934 334.883C699.191 325.303 698.958 314.143 693.383 305.687L693.373 305.678Z" fill="black"/>
<path d="M1389.34 -38.5367C1382.07 -49.3023 1371.27 -53.8125 1358.89 -55.0835C1346.51 -56.3593 1333.2 -51.0381 1326.64 -40.5239C1321.58 -32.4236 1320.87 -22.4358 1317.63 -13.4676C1314.61 -5.12545 1309.4 2.28716 1306.3 10.6009C1303.2 18.9146 1302.6 29.0636 1308.26 35.9166C1311.49 39.8387 1316.32 42.1199 1321.18 43.6422C1329.14 46.1321 1337.64 46.8956 1345.92 45.8712C1351.54 45.1741 1357.5 43.3624 1360.79 38.7764C1362.95 35.7744 1363.64 32.004 1365.18 28.651C1367.46 23.6856 1371.51 19.7967 1375.28 15.8272C1382.26 8.47147 1388.63 0.243126 1391.9 -9.33209C1395.15 -18.912 1394.92 -30.0713 1389.35 -38.5273L1389.34 -38.5367Z" fill="black"/>
<path d="M700.035 8.00197C694.332 6.32785 687.837 7.21471 682.61 10.1646C675.858 13.9681 671.156 20.7974 668.909 28.1863C666.663 35.5704 666.706 43.4905 667.846 51.1213C669.238 60.4262 672.634 70.0536 680.154 75.7636C689.043 82.5075 701.294 82.1755 712.434 81.2033C723.57 80.2311 735.568 79.0976 745.206 84.7318C747.929 86.3253 750.356 88.4072 753.165 89.8442C755.979 91.2765 759.412 92.0021 762.283 90.6837C765.888 89.0285 767.448 84.7697 768.01 80.8618C769.327 71.666 766.985 62.0007 761.606 54.4079C757.977 49.2859 753.008 45.0318 750.461 39.3028C747.023 31.5772 748.482 22.2249 744.39 14.8218C741.639 9.83733 736.555 6.33732 731.023 4.89559C725.496 3.45385 719.569 3.95182 714.118 5.66863C709.444 7.14356 704.823 9.28246 700.031 8.01145L700.035 8.00197Z" fill="black"/>
</g>
<defs>
<clipPath id="clip0_1_20">
<rect width="1440" height="520" fill="white"/>
</clipPath>
</defs>
</svg>
