<svg width="24" height="24" viewBox="0 0 24 24" fill="none" xmlns="http://www.w3.org/2000/svg">
<g clip-path="url(#clip0_4_1595)">
<path fill-rule="evenodd" clip-rule="evenodd" d="M15.5753 2.53171L13.7813 0.737789C12.8005 -0.243 11.2078 -0.243 10.227 0.737789L8.43309 2.53171C8.27382 2.69099 8.06425 2.77481 7.83791 2.77481H5.29792C3.90637 2.77481 2.78307 3.89811 2.78307 5.28966V7.82965C2.78307 8.05599 2.69086 8.26556 2.53997 8.42483L0.737667 10.2188C-0.243122 11.1995 -0.243122 12.7923 0.737667 13.7731L2.53159 15.567C2.69086 15.7263 2.77469 15.9358 2.77469 16.1622V18.7022C2.77469 20.0937 3.89799 21.217 5.28954 21.217H7.82953C8.05587 21.217 8.26544 21.3008 8.42471 21.4601L10.2186 23.254C11.1994 24.2348 12.7922 24.2348 13.7729 23.254L15.5669 21.4601C15.7261 21.3008 15.9357 21.217 16.162 21.217H18.702C20.0936 21.217 21.2169 20.0937 21.2169 18.7022V16.1622C21.2169 15.9358 21.3091 15.7263 21.46 15.567L23.2539 13.7731C24.2347 12.7923 24.2347 11.1995 23.2539 10.2188L21.46 8.42483C21.3007 8.26556 21.2169 8.05599 21.2169 7.82965V5.28966C21.2169 3.89811 20.0936 2.77481 18.702 2.77481H16.162C15.9357 2.77481 15.7261 2.6826 15.5669 2.53171H15.5753ZM13.1861 13.1863C12.2054 14.1671 12.2054 15.7598 13.1861 16.7406C14.1669 17.7214 15.7597 17.7214 16.7405 16.7406C17.7213 15.7598 17.7213 14.1671 16.7405 13.1863C15.7597 12.2055 14.1669 12.2055 13.1861 13.1863ZM9.03666 16.1538L16.1537 9.03678C16.4806 8.70985 16.4806 8.18173 16.1537 7.8548C15.8267 7.52787 15.2986 7.52787 14.9717 7.8548L7.85468 14.9718C7.52775 15.2987 7.52775 15.8269 7.85468 16.1538C8.18161 16.4807 8.70973 16.4807 9.03666 16.1538ZM14.3681 14.3766C14.6951 14.0497 15.2232 14.0497 15.5585 14.3766C15.8854 14.7036 15.8854 15.2317 15.5585 15.567C15.2316 15.8939 14.7034 15.8939 14.3681 15.567C14.0412 15.2401 14.0412 14.7119 14.3681 14.3766ZM7.2595 7.25962C6.27871 8.24041 6.27871 9.83314 7.2595 10.8139C8.24029 11.7947 9.83302 11.7947 10.8138 10.8139C11.7946 9.83314 11.7946 8.24041 10.8138 7.25962C9.83302 6.27883 8.24029 6.27883 7.2595 7.25962ZM8.44147 8.4416C8.7684 8.11467 9.29652 8.11467 9.63183 8.4416C9.95877 8.76853 9.95877 9.29664 9.63183 9.62357C9.3049 9.9505 8.77679 9.9505 8.44147 9.62357C8.11454 9.29664 8.11454 8.76853 8.44147 8.4416Z" fill="black"/>
</g>
<defs>
<clipPath id="clip0_4_1595">
<rect width="24" height="24" fill="white"/>
</clipPath>
</defs>
</svg>
